<mxfile host="app.diagrams.net" modified="2021-04-23T03:02:52.492Z" agent="5.0 (Windows NT 10.0; Win64; x64) AppleWebKit/537.36 (KHTML, like Gecko) Chrome/88.0.4324.182 Safari/537.36" etag="QVjy4JkASJ3tfAe_UI0X" version="14.6.5" type="github">
  <diagram name="Page-1" id="7a6c530e-6e37-e111-ec74-82921da8cc10">
    <mxGraphModel dx="1038" dy="580" grid="1" gridSize="10" guides="1" tooltips="1" connect="1" arrows="1" fold="1" page="1" pageScale="1.5" pageWidth="1169" pageHeight="826" background="#184380" math="0" shadow="0">
      <root>
        <mxCell id="0" style=";html=1;" />
        <mxCell id="1" style=";html=1;" parent="0" />
        <mxCell id="hTers9WlESxGfoSTvFPv-1" value="" style="whiteSpace=wrap;html=1;rounded=1;shadow=0;strokeColor=none;strokeWidth=2;fillColor=#009BFF;fontSize=20;fontColor=#FFFFFF;align=center;arcSize=3;verticalAlign=top;spacingTop=4;" vertex="1" parent="1">
          <mxGeometry x="710" y="320" width="500" height="400" as="geometry" />
        </mxCell>
        <mxCell id="hTers9WlESxGfoSTvFPv-2" value="" style="rounded=1;whiteSpace=wrap;html=1;shadow=0;strokeWidth=2;fillColor=#8BC63E;fontSize=12;fontColor=#000000;align=center;strokeColor=none;arcSize=3;" vertex="1" parent="1">
          <mxGeometry x="729" y="345.25" width="461" height="354.75" as="geometry" />
        </mxCell>
        <mxCell id="hTers9WlESxGfoSTvFPv-35" value="" style="edgeStyle=orthogonalEdgeStyle;rounded=0;orthogonalLoop=1;jettySize=auto;html=1;strokeColor=#FFFFFF;strokeWidth=3;" edge="1" parent="1" source="hTers9WlESxGfoSTvFPv-16" target="hTers9WlESxGfoSTvFPv-30">
          <mxGeometry relative="1" as="geometry" />
        </mxCell>
        <mxCell id="hTers9WlESxGfoSTvFPv-16" value="" style="rounded=1;whiteSpace=wrap;html=1;shadow=0;strokeWidth=2;fillColor=none;fontSize=12;fontColor=#000000;align=center;strokeColor=#FFFFFF;arcSize=9;" vertex="1" parent="1">
          <mxGeometry x="762" y="390.5" width="170" height="279.5" as="geometry" />
        </mxCell>
        <mxCell id="hTers9WlESxGfoSTvFPv-33" value="" style="edgeStyle=orthogonalEdgeStyle;rounded=0;orthogonalLoop=1;jettySize=auto;html=1;" edge="1" parent="1" source="hTers9WlESxGfoSTvFPv-18" target="hTers9WlESxGfoSTvFPv-19">
          <mxGeometry relative="1" as="geometry" />
        </mxCell>
        <mxCell id="hTers9WlESxGfoSTvFPv-18" value="配置管理2" style="shape=image;verticalLabelPosition=bottom;labelBackgroundColor=#8BC63E;verticalAlign=top;aspect=fixed;imageAspect=0;image=data:image/svg+xml,PHN2ZyB4bWxuczpjYz0iaHR0cDovL2NyZWF0aXZlY29tbW9ucy5vcmcvbnMjIiB4bWxuczpkYz0iaHR0cDovL3B1cmwub3JnL2RjL2VsZW1lbnRzLzEuMS8iIHhtbG5zOmlua3NjYXBlPSJodHRwOi8vd3d3Lmlua3NjYXBlLm9yZy9uYW1lc3BhY2VzL2lua3NjYXBlIiB4bWxuczpyZGY9Imh0dHA6Ly93d3cudzMub3JnLzE5OTkvMDIvMjItcmRmLXN5bnRheC1ucyMiIHhtbG5zOnNvZGlwb2RpPSJodHRwOi8vc29kaXBvZGkuc291cmNlZm9yZ2UubmV0L0RURC9zb2RpcG9kaS0wLmR0ZCIgeG1sbnM6c3ZnPSJodHRwOi8vd3d3LnczLm9yZy8yMDAwL3N2ZyIgeG1sbnM9Imh0dHA6Ly93d3cudzMub3JnLzIwMDAvc3ZnIiB4bWxuczp4bGluaz0iaHR0cDovL3d3dy53My5vcmcvMTk5OS94bGluayIgdmVyc2lvbj0iMS4xIiBpZD0ic3ZnMjA1MzciIGlua3NjYXBlOnZlcnNpb249IjAuOTIuMyAoMjQwNTU0NiwgMjAxOC0wMy0xMSkiIHNvZGlwb2RpOmRvY25hbWU9IndlYl9zZXJ2ZXJfNC5zdmciIHg9IjBweCIgeT0iMHB4IiB2aWV3Qm94PSIwIDAgNTEuNjYgNjcuNTEiIHN0eWxlPSJlbmFibGUtYmFja2dyb3VuZDpuZXcgMCAwIDUxLjY2IDY3LjUxOyIgeG1sOnNwYWNlPSJwcmVzZXJ2ZSI+JiN4YTs8c29kaXBvZGk6bmFtZWR2aWV3IGJvcmRlcmNvbG9yPSIjNjY2NjY2IiBib3JkZXJvcGFjaXR5PSIxIiBmaXQtbWFyZ2luLWJvdHRvbT0iMCIgZml0LW1hcmdpbi1sZWZ0PSIwIiBmaXQtbWFyZ2luLXJpZ2h0PSIwIiBmaXQtbWFyZ2luLXRvcD0iMCIgZ3JpZHRvbGVyYW5jZT0iMTAiIGd1aWRldG9sZXJhbmNlPSIxMCIgaWQ9Im5hbWVkdmlldzIwNTM5IiBpbmtzY2FwZTpjdXJyZW50LWxheWVyPSJzdmcyMDUzNyIgaW5rc2NhcGU6Y3g9IjM0LjQzOTI2NSIgaW5rc2NhcGU6Y3k9IjQ1LjAwMzU5NSIgaW5rc2NhcGU6cGFnZW9wYWNpdHk9IjAiIGlua3NjYXBlOnBhZ2VzaGFkb3c9IjIiIGlua3NjYXBlOndpbmRvdy1oZWlnaHQ9IjEwMTciIGlua3NjYXBlOndpbmRvdy1tYXhpbWl6ZWQ9IjEiIGlua3NjYXBlOndpbmRvdy13aWR0aD0iMTkyMCIgaW5rc2NhcGU6d2luZG93LXg9Ii04IiBpbmtzY2FwZTp3aW5kb3cteT0iLTgiIGlua3NjYXBlOnpvb209IjkuNDIzMjc3MyIgb2JqZWN0dG9sZXJhbmNlPSIxMCIgcGFnZWNvbG9yPSIjZmZmZmZmIiBzaG93Z3JpZD0iZmFsc2UiPiYjeGE7CTwvc29kaXBvZGk6bmFtZWR2aWV3PiYjeGE7PGcgaWQ9ImcyMDUzNSIgdHJhbnNmb3JtPSJ0cmFuc2xhdGUoLTAuNzUsLTAuNzQ1MzY4KSI+JiN4YTsJPHRpdGxlIGlkPSJ0aXRsZTIwNDYwIj5QYWdlLTE8L3RpdGxlPiYjeGE7CTxnIGlkPSJncm91cDc4NTktMSIgdHJhbnNmb3JtPSJ0cmFuc2xhdGUoMC43NSwtMC43NTAwMTIpIj4mI3hhOwkJPHRpdGxlIGlkPSJ0aXRsZTIwNDYyIj5XZWIgU2VydmVyICM0PC90aXRsZT4mI3hhOwkJPGcgaWQ9InNoYXBlNzg2MC0yIiB0cmFuc2Zvcm09InRyYW5zbGF0ZSgwLC02Ljc1NDYyKSI+JiN4YTsJCQk8dGl0bGUgaWQ9InRpdGxlMjA0NjQiPnBvbHlnb24yNTA0LjIzODk8L3RpdGxlPiYjeGE7CQkJPHBhdGggaWQ9InBhdGgyMDQ2NiIgaW5rc2NhcGU6Y29ubmVjdG9yLWN1cnZhdHVyZT0iMCIgc3R5bGU9ImZpbGw6IzU2NjE2RDsiIGQ9Ik0wLDQxLjI1aDAuNzVWMzlIMHYtMy43NWgwLjc1VjMzSDB2LTNoMC43NSAgICAgdi0yLjI1SDBWMjRoMC43NXYtMi4yNUgwVjE4aDAuNzV2LTIuMjVIMHYtNy41aDM2Ljc1VjY5SDBWNDEuMjV6Ii8+JiN4YTsJCTwvZz4mI3hhOwkJPGcgaWQ9InNoYXBlNzg2MS00IiB0cmFuc2Zvcm09InRyYW5zbGF0ZSgyMy4yNSwtNTEuNzU0NikiPiYjeGE7CQkJPHRpdGxlIGlkPSJ0aXRsZTIwNDY5Ij5yZWN0MjUwNi4yMzkwPC90aXRsZT4mI3hhOwkJCTxyZWN0IGlkPSJyZWN0MjA0NzEiIHk9IjY2Ljc1IiB3aWR0aD0iMTMuNSIgaGVpZ2h0PSIyLjI1Ii8+JiN4YTsJCTwvZz4mI3hhOwkJPGcgaWQ9InNoYXBlNzg2Mi02IiB0cmFuc2Zvcm09InRyYW5zbGF0ZSgyMy4yNSwtNDUuNzU0NikiPiYjeGE7CQkJPHRpdGxlIGlkPSJ0aXRsZTIwNDc0Ij5yZWN0MjUwOC4yMzkxPC90aXRsZT4mI3hhOwkJCTxyZWN0IGlkPSJyZWN0MjA0NzYiIHk9IjY2Ljc1IiB3aWR0aD0iMTMuNSIgaGVpZ2h0PSIyLjI1Ii8+JiN4YTsJCTwvZz4mI3hhOwkJPGcgaWQ9InNoYXBlNzg2My04IiB0cmFuc2Zvcm09InRyYW5zbGF0ZSgyMy4yNSwtNTcuNzU0NikiPiYjeGE7CQkJPHRpdGxlIGlkPSJ0aXRsZTIwNDc5Ij5yZWN0MjUxMC4yMzkyPC90aXRsZT4mI3hhOwkJCTxyZWN0IGlkPSJyZWN0MjA0ODEiIHk9IjY2Ljc1IiB3aWR0aD0iMTMuNSIgaGVpZ2h0PSIyLjI1Ii8+JiN4YTsJCTwvZz4mI3hhOwkJPGcgaWQ9InNoYXBlNzg2NC0xMCIgdHJhbnNmb3JtPSJ0cmFuc2xhdGUoMC43NSwtNTEuNzU0NikiPiYjeGE7CQkJPHRpdGxlIGlkPSJ0aXRsZTIwNDg0Ij5yZWN0MjUxMi4yMzkzPC90aXRsZT4mI3hhOwkJCTxyZWN0IGlkPSJyZWN0MjA0ODYiIHk9IjY2Ljc1IiBzdHlsZT0iZmlsbDojMzMzMzMzOyIgd2lkdGg9IjE2LjUiIGhlaWdodD0iMi4yNSIvPiYjeGE7CQk8L2c+JiN4YTsJCTxnIGlkPSJzaGFwZTc4NjUtMTIiIHRyYW5zZm9ybT0idHJhbnNsYXRlKDAuNzUsLTQ1Ljc1NDYpIj4mI3hhOwkJCTx0aXRsZSBpZD0idGl0bGUyMDQ4OSI+cmVjdDI1MTQuMjM5NDwvdGl0bGU+JiN4YTsJCQk8cmVjdCBpZD0icmVjdDIwNDkxIiB5PSI2Ni43NSIgc3R5bGU9ImZpbGw6IzMzMzMzMzsiIHdpZHRoPSIxNi41IiBoZWlnaHQ9IjIuMjUiLz4mI3hhOwkJPC9nPiYjeGE7CQk8ZyBpZD0ic2hhcGU3ODY2LTE0IiB0cmFuc2Zvcm09InRyYW5zbGF0ZSgwLjc1LC01Ny43NTQ2KSI+JiN4YTsJCQk8dGl0bGUgaWQ9InRpdGxlMjA0OTQiPnJlY3QyNTE2LjIzOTU8L3RpdGxlPiYjeGE7CQkJPHJlY3QgaWQ9InJlY3QyMDQ5NiIgeT0iNjYuNzUiIHN0eWxlPSJmaWxsOiMzMzMzMzM7IiB3aWR0aD0iMTYuNSIgaGVpZ2h0PSIyLjI1Ii8+JiN4YTsJCTwvZz4mI3hhOwkJPGcgaWQ9InNoYXBlNzg2Ny0xNiIgdHJhbnNmb3JtPSJ0cmFuc2xhdGUoMjMuMjUsLTYuNzU0NjIpIj4mI3hhOwkJCTx0aXRsZSBpZD0idGl0bGUyMDQ5OSI+cG9seWdvbjI1MTguMjM5NjwvdGl0bGU+JiN4YTsJCQk8cGF0aCBpZD0icGF0aDIwNTAxIiBpbmtzY2FwZTpjb25uZWN0b3ItY3VydmF0dXJlPSIwIiBzdHlsZT0iZmlsbDojNDc0RjU5OyIgZD0iTTExLjI1LDE1Ljc1VjE4SDB2My43NWgxMS4yNVYyNEgwdjMuNzVoMTEuMjUgICAgIFYzMEgwdjM5aDEzLjVWOC4yNUgwdjcuNUgxMS4yNXoiLz4mI3hhOwkJPC9nPiYjeGE7CQk8ZyBpZD0ic2hhcGU3ODY4LTE4IiB0cmFuc2Zvcm09InRyYW5zbGF0ZSgwLjc1LC01Ny43NTQ2KSI+JiN4YTsJCQk8dGl0bGUgaWQ9InRpdGxlMjA1MDQiPnBvbHlnb24yNTIwLjIzOTc8L3RpdGxlPiYjeGE7CQkJPHJlY3QgaWQ9InJlY3QyMDUwNiIgeT0iNjYuNzUiIHN0eWxlPSJmaWxsOm5vbmU7IiB3aWR0aD0iMjQuNzUiIGhlaWdodD0iMi4yNSIvPiYjeGE7CQk8L2c+JiN4YTsJCTxnIGlkPSJzaGFwZTc4NjktMjAiIHRyYW5zZm9ybT0idHJhbnNsYXRlKDAuNzUsLTU3Ljc1NDYpIj4mI3hhOwkJCTx0aXRsZSBpZD0idGl0bGUyMDUwOSI+cG9seWxpbmUyNTIyLjIzOTg8L3RpdGxlPiYjeGE7CQkJPHJlY3QgaWQ9InJlY3QyMDUxMSIgeT0iNjYuNzUiIHN0eWxlPSJmaWxsOm5vbmU7IiB3aWR0aD0iMjQuNzUiIGhlaWdodD0iMi4yNSIvPiYjeGE7CQk8L2c+JiN4YTsJCTxnIGlkPSJzaGFwZTc4NzAtMjIiIHRyYW5zZm9ybT0idHJhbnNsYXRlKDE3LjI1LC01Ny43NTQ2KSI+JiN4YTsJCQk8dGl0bGUgaWQ9InRpdGxlMjA1MTQiPnBvbHlnb24yNTI0LjIzOTk8L3RpdGxlPiYjeGE7CQkJPHJlY3QgaWQ9InJlY3QyMDUxNiIgeT0iNjYuNzUiIHN0eWxlPSJmaWxsOiM1NUE1RTQ7IiB3aWR0aD0iNiIgaGVpZ2h0PSIyLjI1Ii8+JiN4YTsJCTwvZz4mI3hhOwkJPGcgaWQ9InNoYXBlNzg3MS0yNCIgdHJhbnNmb3JtPSJ0cmFuc2xhdGUoMTcuMjUsLTUxLjc1NDYpIj4mI3hhOwkJCTx0aXRsZSBpZD0idGl0bGUyMDUxOSI+cG9seWdvbjI1MjYuMjQwMDwvdGl0bGU+JiN4YTsJCQk8cmVjdCBpZD0icmVjdDIwNTIxIiB5PSI2Ni43NSIgc3R5bGU9ImZpbGw6IzU1QTVFNDsiIHdpZHRoPSI2IiBoZWlnaHQ9IjIuMjUiLz4mI3hhOwkJPC9nPiYjeGE7CQk8ZyBpZD0ic2hhcGU3ODcyLTI2IiB0cmFuc2Zvcm09InRyYW5zbGF0ZSgxNy4yNSwtNDUuNzU0NikiPiYjeGE7CQkJPHRpdGxlIGlkPSJ0aXRsZTIwNTI0Ij5wb2x5Z29uMjUyOC4yNDAxPC90aXRsZT4mI3hhOwkJCTxyZWN0IGlkPSJyZWN0MjA1MjYiIHk9IjY2Ljc1IiBzdHlsZT0iZmlsbDojNTVBNUU0OyIgd2lkdGg9IjYiIGhlaWdodD0iMi4yNSIvPiYjeGE7CQk8L2c+JiN4YTsJCTxnIGlkPSJzaGFwZTc4NzMtMjgiIHRyYW5zZm9ybT0idHJhbnNsYXRlKDIxLjY1ODYpIj4mI3hhOwkJCTx0aXRsZSBpZD0idGl0bGUyMDUyOSI+cGF0aDI1MzAuMjQwMjwvdGl0bGU+JiN4YTsJCQk8cGF0aCBpZD0icGF0aDIwNTMxIiBpbmtzY2FwZTpjb25uZWN0b3ItY3VydmF0dXJlPSIwIiBzdHlsZT0iZmlsbDojOTI3M0I2OyIgZD0iTTI5LjUzLDUyLjE3bC0zLjU5LTAuMzkgICAgIGMtMC4yOC0wLjAzLTAuNTEtMC4yNC0wLjU2LTAuNTFjLTAuMjEtMC44OS0wLjUzLTEuNzQtMC45Ni0yLjU1Yy0wLjEyLTAuMjUtMC4wOC0wLjU0LDAuMDktMC43NWwyLjI1LTIuNzcgICAgIGMwLjIzLTAuMjgsMC4yMS0wLjY5LTAuMDUtMC45NGwtMS44Ny0xLjg3Yy0wLjI1LTAuMjUtMC42NS0wLjI3LTAuOTItMC4wNWwtMi43LDIuMTdjLTAuMjIsMC4xNy0wLjUxLDAuMTktMC43NSwwLjA2ICAgICBjLTAuNzUtMC40NS0xLjU2LTAuODEtMi40LTEuMDZjLTAuMjYtMC4wOC0wLjQ1LTAuMzEtMC40OC0wLjU4bC0wLjM5LTMuNDRDMTcuMTYsMzkuMTIsMTYuODYsMzksMTYuNTEsMzloLTIuNjUgICAgIGMtMC4zNSwwLTAuNjUsMC4xMy0wLjY5LDAuNDhsLTAuMzgsMy40MmMtMC4wNCwwLjI4LTAuMjUsMC41MS0wLjUyLDAuNTZjLTAuOTMsMC4yNC0xLjgyLDAuNi0yLjY2LDEuMDggICAgIGMtMC4yNCwwLjEzLTAuNTMsMC4xMS0wLjc1LTAuMDZMNi4yLDQyLjM0Yy0wLjI3LTAuMjItMC42Ny0wLjItMC45MiwwLjA0bC0xLjg5LDEuODhjLTAuMjUsMC4yNS0wLjI3LDAuNjUtMC4wNSwwLjkybDIuMTcsMi43MSAgICAgYzAuMTcsMC4yMiwwLjE5LDAuNTEsMC4wNiwwLjc1Yy0wLjQ1LDAuODMtMC43OSwxLjcxLTEuMDEsMi42MmMtMC4wNywwLjI4LTAuMzIsMC40OS0wLjYxLDAuNTJsLTMuNDMsMC4zOCAgICAgQzAuMTksNTIuMjEtMC4wNCw1Mi41MiwwLDUyLjg1bDAsMi42NmMtMC4wNCwwLjMzLDAuMTksMC42NCwwLjUyLDAuNjlsMy42OSwwLjQxYzAuMjcsMC4wMywwLjQ5LDAuMjIsMC41NiwwLjQ3ICAgICBjMC4yMiwwLjY4LDAuNSwxLjM0LDAuODUsMS45N2MwLjEzLDAuMjQsMC4xLDAuNTQtMC4wNywwLjc1bC0yLjIyLDIuNzVjLTAuMjIsMC4yNy0wLjIsMC42NywwLjA1LDAuOTJsMS44NywxLjg3ICAgICBjMC4yNSwwLjI1LDAuNjUsMC4yNywwLjkyLDAuMDVsMi43My0yLjE5YzAuMjMtMC4xOCwwLjU0LTAuMiwwLjc5LTAuMDVjMC43MiwwLjQxLDEuNDksMC43MywyLjI4LDAuOTYgICAgIGMwLjI4LDAuMDcsMC40OCwwLjMxLDAuNTEsMC41OWwwLjQsMy42OWMwLjA0LDAuMzUsMC4zNCwwLjYyLDAuNjksMC42MWwyLjY1LDBjMC4zNSwwLDAuNjUtMC4yNiwwLjY5LTAuNjFsMC4zOS0zLjY1ICAgICBjMC4wMy0wLjI4LDAuMjMtMC41MSwwLjUtMC41OGMwLjg5LTAuMjQsMS43NS0wLjYsMi41NS0xLjA2YzAuMjQtMC4xMywwLjU0LTAuMSwwLjc1LDAuMDdsMi43NywyLjI1ICAgICBjMC4yOCwwLjIyLDAuNjcsMC4yLDAuOTItMC4wNWwxLjg3LTEuODdjMC4yNS0wLjI1LDAuMjctMC42NSwwLjA1LTAuOTJsLTIuMjQtMi44M2MtMC4xNi0wLjIyLTAuMTktMC41MS0wLjA2LTAuNzUgICAgIGMwLjMyLTAuNTksMC41OC0xLjIxLDAuNzgtMS44NWMwLjA4LTAuMjYsMC4zMS0wLjQ2LDAuNTgtMC40OWwzLjc2LTAuNDFjMC4zNS0wLjA0LDAuNDgtMC4zNCwwLjQ4LTAuNjl2LTIuNjUgICAgIEMzMC4wMSw1Mi41MSwyOS44OCw1Mi4yMSwyOS41Myw1Mi4xN3ogTTE1LjAxLDU5LjM3Yy0zLjA0LDAtNS41MS0yLjQ2LTUuNTEtNS41YzAtMy4wNCwyLjQ2LTUuNTEsNS41LTUuNTEgICAgIGMzLjA0LDAsNS41MSwyLjQ2LDUuNTEsNS41YzAsMCwwLDAuMDEsMCwwLjAxQzIwLjUxLDU2LjkxLDE4LjA1LDU5LjM3LDE1LjAxLDU5LjM3eiIvPiYjeGE7CQk8L2c+JiN4YTsJPC9nPiYjeGE7PC9nPiYjeGE7PC9zdmc+;fontColor=#FFFFFF;" vertex="1" parent="1">
          <mxGeometry x="860" y="491" width="52" height="68" as="geometry" />
        </mxCell>
        <mxCell id="hTers9WlESxGfoSTvFPv-19" value="配置管理3" style="shape=image;verticalLabelPosition=bottom;labelBackgroundColor=#8BC63E;verticalAlign=top;aspect=fixed;imageAspect=0;image=data:image/svg+xml,PHN2ZyB4bWxuczpjYz0iaHR0cDovL2NyZWF0aXZlY29tbW9ucy5vcmcvbnMjIiB4bWxuczpkYz0iaHR0cDovL3B1cmwub3JnL2RjL2VsZW1lbnRzLzEuMS8iIHhtbG5zOmlua3NjYXBlPSJodHRwOi8vd3d3Lmlua3NjYXBlLm9yZy9uYW1lc3BhY2VzL2lua3NjYXBlIiB4bWxuczpyZGY9Imh0dHA6Ly93d3cudzMub3JnLzE5OTkvMDIvMjItcmRmLXN5bnRheC1ucyMiIHhtbG5zOnNvZGlwb2RpPSJodHRwOi8vc29kaXBvZGkuc291cmNlZm9yZ2UubmV0L0RURC9zb2RpcG9kaS0wLmR0ZCIgeG1sbnM6c3ZnPSJodHRwOi8vd3d3LnczLm9yZy8yMDAwL3N2ZyIgeG1sbnM9Imh0dHA6Ly93d3cudzMub3JnLzIwMDAvc3ZnIiB4bWxuczp4bGluaz0iaHR0cDovL3d3dy53My5vcmcvMTk5OS94bGluayIgdmVyc2lvbj0iMS4xIiBpZD0ic3ZnMjA1MzciIGlua3NjYXBlOnZlcnNpb249IjAuOTIuMyAoMjQwNTU0NiwgMjAxOC0wMy0xMSkiIHNvZGlwb2RpOmRvY25hbWU9IndlYl9zZXJ2ZXJfNC5zdmciIHg9IjBweCIgeT0iMHB4IiB2aWV3Qm94PSIwIDAgNTEuNjYgNjcuNTEiIHN0eWxlPSJlbmFibGUtYmFja2dyb3VuZDpuZXcgMCAwIDUxLjY2IDY3LjUxOyIgeG1sOnNwYWNlPSJwcmVzZXJ2ZSI+JiN4YTs8c29kaXBvZGk6bmFtZWR2aWV3IGJvcmRlcmNvbG9yPSIjNjY2NjY2IiBib3JkZXJvcGFjaXR5PSIxIiBmaXQtbWFyZ2luLWJvdHRvbT0iMCIgZml0LW1hcmdpbi1sZWZ0PSIwIiBmaXQtbWFyZ2luLXJpZ2h0PSIwIiBmaXQtbWFyZ2luLXRvcD0iMCIgZ3JpZHRvbGVyYW5jZT0iMTAiIGd1aWRldG9sZXJhbmNlPSIxMCIgaWQ9Im5hbWVkdmlldzIwNTM5IiBpbmtzY2FwZTpjdXJyZW50LWxheWVyPSJzdmcyMDUzNyIgaW5rc2NhcGU6Y3g9IjM0LjQzOTI2NSIgaW5rc2NhcGU6Y3k9IjQ1LjAwMzU5NSIgaW5rc2NhcGU6cGFnZW9wYWNpdHk9IjAiIGlua3NjYXBlOnBhZ2VzaGFkb3c9IjIiIGlua3NjYXBlOndpbmRvdy1oZWlnaHQ9IjEwMTciIGlua3NjYXBlOndpbmRvdy1tYXhpbWl6ZWQ9IjEiIGlua3NjYXBlOndpbmRvdy13aWR0aD0iMTkyMCIgaW5rc2NhcGU6d2luZG93LXg9Ii04IiBpbmtzY2FwZTp3aW5kb3cteT0iLTgiIGlua3NjYXBlOnpvb209IjkuNDIzMjc3MyIgb2JqZWN0dG9sZXJhbmNlPSIxMCIgcGFnZWNvbG9yPSIjZmZmZmZmIiBzaG93Z3JpZD0iZmFsc2UiPiYjeGE7CTwvc29kaXBvZGk6bmFtZWR2aWV3PiYjeGE7PGcgaWQ9ImcyMDUzNSIgdHJhbnNmb3JtPSJ0cmFuc2xhdGUoLTAuNzUsLTAuNzQ1MzY4KSI+JiN4YTsJPHRpdGxlIGlkPSJ0aXRsZTIwNDYwIj5QYWdlLTE8L3RpdGxlPiYjeGE7CTxnIGlkPSJncm91cDc4NTktMSIgdHJhbnNmb3JtPSJ0cmFuc2xhdGUoMC43NSwtMC43NTAwMTIpIj4mI3hhOwkJPHRpdGxlIGlkPSJ0aXRsZTIwNDYyIj5XZWIgU2VydmVyICM0PC90aXRsZT4mI3hhOwkJPGcgaWQ9InNoYXBlNzg2MC0yIiB0cmFuc2Zvcm09InRyYW5zbGF0ZSgwLC02Ljc1NDYyKSI+JiN4YTsJCQk8dGl0bGUgaWQ9InRpdGxlMjA0NjQiPnBvbHlnb24yNTA0LjIzODk8L3RpdGxlPiYjeGE7CQkJPHBhdGggaWQ9InBhdGgyMDQ2NiIgaW5rc2NhcGU6Y29ubmVjdG9yLWN1cnZhdHVyZT0iMCIgc3R5bGU9ImZpbGw6IzU2NjE2RDsiIGQ9Ik0wLDQxLjI1aDAuNzVWMzlIMHYtMy43NWgwLjc1VjMzSDB2LTNoMC43NSAgICAgdi0yLjI1SDBWMjRoMC43NXYtMi4yNUgwVjE4aDAuNzV2LTIuMjVIMHYtNy41aDM2Ljc1VjY5SDBWNDEuMjV6Ii8+JiN4YTsJCTwvZz4mI3hhOwkJPGcgaWQ9InNoYXBlNzg2MS00IiB0cmFuc2Zvcm09InRyYW5zbGF0ZSgyMy4yNSwtNTEuNzU0NikiPiYjeGE7CQkJPHRpdGxlIGlkPSJ0aXRsZTIwNDY5Ij5yZWN0MjUwNi4yMzkwPC90aXRsZT4mI3hhOwkJCTxyZWN0IGlkPSJyZWN0MjA0NzEiIHk9IjY2Ljc1IiB3aWR0aD0iMTMuNSIgaGVpZ2h0PSIyLjI1Ii8+JiN4YTsJCTwvZz4mI3hhOwkJPGcgaWQ9InNoYXBlNzg2Mi02IiB0cmFuc2Zvcm09InRyYW5zbGF0ZSgyMy4yNSwtNDUuNzU0NikiPiYjeGE7CQkJPHRpdGxlIGlkPSJ0aXRsZTIwNDc0Ij5yZWN0MjUwOC4yMzkxPC90aXRsZT4mI3hhOwkJCTxyZWN0IGlkPSJyZWN0MjA0NzYiIHk9IjY2Ljc1IiB3aWR0aD0iMTMuNSIgaGVpZ2h0PSIyLjI1Ii8+JiN4YTsJCTwvZz4mI3hhOwkJPGcgaWQ9InNoYXBlNzg2My04IiB0cmFuc2Zvcm09InRyYW5zbGF0ZSgyMy4yNSwtNTcuNzU0NikiPiYjeGE7CQkJPHRpdGxlIGlkPSJ0aXRsZTIwNDc5Ij5yZWN0MjUxMC4yMzkyPC90aXRsZT4mI3hhOwkJCTxyZWN0IGlkPSJyZWN0MjA0ODEiIHk9IjY2Ljc1IiB3aWR0aD0iMTMuNSIgaGVpZ2h0PSIyLjI1Ii8+JiN4YTsJCTwvZz4mI3hhOwkJPGcgaWQ9InNoYXBlNzg2NC0xMCIgdHJhbnNmb3JtPSJ0cmFuc2xhdGUoMC43NSwtNTEuNzU0NikiPiYjeGE7CQkJPHRpdGxlIGlkPSJ0aXRsZTIwNDg0Ij5yZWN0MjUxMi4yMzkzPC90aXRsZT4mI3hhOwkJCTxyZWN0IGlkPSJyZWN0MjA0ODYiIHk9IjY2Ljc1IiBzdHlsZT0iZmlsbDojMzMzMzMzOyIgd2lkdGg9IjE2LjUiIGhlaWdodD0iMi4yNSIvPiYjeGE7CQk8L2c+JiN4YTsJCTxnIGlkPSJzaGFwZTc4NjUtMTIiIHRyYW5zZm9ybT0idHJhbnNsYXRlKDAuNzUsLTQ1Ljc1NDYpIj4mI3hhOwkJCTx0aXRsZSBpZD0idGl0bGUyMDQ4OSI+cmVjdDI1MTQuMjM5NDwvdGl0bGU+JiN4YTsJCQk8cmVjdCBpZD0icmVjdDIwNDkxIiB5PSI2Ni43NSIgc3R5bGU9ImZpbGw6IzMzMzMzMzsiIHdpZHRoPSIxNi41IiBoZWlnaHQ9IjIuMjUiLz4mI3hhOwkJPC9nPiYjeGE7CQk8ZyBpZD0ic2hhcGU3ODY2LTE0IiB0cmFuc2Zvcm09InRyYW5zbGF0ZSgwLjc1LC01Ny43NTQ2KSI+JiN4YTsJCQk8dGl0bGUgaWQ9InRpdGxlMjA0OTQiPnJlY3QyNTE2LjIzOTU8L3RpdGxlPiYjeGE7CQkJPHJlY3QgaWQ9InJlY3QyMDQ5NiIgeT0iNjYuNzUiIHN0eWxlPSJmaWxsOiMzMzMzMzM7IiB3aWR0aD0iMTYuNSIgaGVpZ2h0PSIyLjI1Ii8+JiN4YTsJCTwvZz4mI3hhOwkJPGcgaWQ9InNoYXBlNzg2Ny0xNiIgdHJhbnNmb3JtPSJ0cmFuc2xhdGUoMjMuMjUsLTYuNzU0NjIpIj4mI3hhOwkJCTx0aXRsZSBpZD0idGl0bGUyMDQ5OSI+cG9seWdvbjI1MTguMjM5NjwvdGl0bGU+JiN4YTsJCQk8cGF0aCBpZD0icGF0aDIwNTAxIiBpbmtzY2FwZTpjb25uZWN0b3ItY3VydmF0dXJlPSIwIiBzdHlsZT0iZmlsbDojNDc0RjU5OyIgZD0iTTExLjI1LDE1Ljc1VjE4SDB2My43NWgxMS4yNVYyNEgwdjMuNzVoMTEuMjUgICAgIFYzMEgwdjM5aDEzLjVWOC4yNUgwdjcuNUgxMS4yNXoiLz4mI3hhOwkJPC9nPiYjeGE7CQk8ZyBpZD0ic2hhcGU3ODY4LTE4IiB0cmFuc2Zvcm09InRyYW5zbGF0ZSgwLjc1LC01Ny43NTQ2KSI+JiN4YTsJCQk8dGl0bGUgaWQ9InRpdGxlMjA1MDQiPnBvbHlnb24yNTIwLjIzOTc8L3RpdGxlPiYjeGE7CQkJPHJlY3QgaWQ9InJlY3QyMDUwNiIgeT0iNjYuNzUiIHN0eWxlPSJmaWxsOm5vbmU7IiB3aWR0aD0iMjQuNzUiIGhlaWdodD0iMi4yNSIvPiYjeGE7CQk8L2c+JiN4YTsJCTxnIGlkPSJzaGFwZTc4NjktMjAiIHRyYW5zZm9ybT0idHJhbnNsYXRlKDAuNzUsLTU3Ljc1NDYpIj4mI3hhOwkJCTx0aXRsZSBpZD0idGl0bGUyMDUwOSI+cG9seWxpbmUyNTIyLjIzOTg8L3RpdGxlPiYjeGE7CQkJPHJlY3QgaWQ9InJlY3QyMDUxMSIgeT0iNjYuNzUiIHN0eWxlPSJmaWxsOm5vbmU7IiB3aWR0aD0iMjQuNzUiIGhlaWdodD0iMi4yNSIvPiYjeGE7CQk8L2c+JiN4YTsJCTxnIGlkPSJzaGFwZTc4NzAtMjIiIHRyYW5zZm9ybT0idHJhbnNsYXRlKDE3LjI1LC01Ny43NTQ2KSI+JiN4YTsJCQk8dGl0bGUgaWQ9InRpdGxlMjA1MTQiPnBvbHlnb24yNTI0LjIzOTk8L3RpdGxlPiYjeGE7CQkJPHJlY3QgaWQ9InJlY3QyMDUxNiIgeT0iNjYuNzUiIHN0eWxlPSJmaWxsOiM1NUE1RTQ7IiB3aWR0aD0iNiIgaGVpZ2h0PSIyLjI1Ii8+JiN4YTsJCTwvZz4mI3hhOwkJPGcgaWQ9InNoYXBlNzg3MS0yNCIgdHJhbnNmb3JtPSJ0cmFuc2xhdGUoMTcuMjUsLTUxLjc1NDYpIj4mI3hhOwkJCTx0aXRsZSBpZD0idGl0bGUyMDUxOSI+cG9seWdvbjI1MjYuMjQwMDwvdGl0bGU+JiN4YTsJCQk8cmVjdCBpZD0icmVjdDIwNTIxIiB5PSI2Ni43NSIgc3R5bGU9ImZpbGw6IzU1QTVFNDsiIHdpZHRoPSI2IiBoZWlnaHQ9IjIuMjUiLz4mI3hhOwkJPC9nPiYjeGE7CQk8ZyBpZD0ic2hhcGU3ODcyLTI2IiB0cmFuc2Zvcm09InRyYW5zbGF0ZSgxNy4yNSwtNDUuNzU0NikiPiYjeGE7CQkJPHRpdGxlIGlkPSJ0aXRsZTIwNTI0Ij5wb2x5Z29uMjUyOC4yNDAxPC90aXRsZT4mI3hhOwkJCTxyZWN0IGlkPSJyZWN0MjA1MjYiIHk9IjY2Ljc1IiBzdHlsZT0iZmlsbDojNTVBNUU0OyIgd2lkdGg9IjYiIGhlaWdodD0iMi4yNSIvPiYjeGE7CQk8L2c+JiN4YTsJCTxnIGlkPSJzaGFwZTc4NzMtMjgiIHRyYW5zZm9ybT0idHJhbnNsYXRlKDIxLjY1ODYpIj4mI3hhOwkJCTx0aXRsZSBpZD0idGl0bGUyMDUyOSI+cGF0aDI1MzAuMjQwMjwvdGl0bGU+JiN4YTsJCQk8cGF0aCBpZD0icGF0aDIwNTMxIiBpbmtzY2FwZTpjb25uZWN0b3ItY3VydmF0dXJlPSIwIiBzdHlsZT0iZmlsbDojOTI3M0I2OyIgZD0iTTI5LjUzLDUyLjE3bC0zLjU5LTAuMzkgICAgIGMtMC4yOC0wLjAzLTAuNTEtMC4yNC0wLjU2LTAuNTFjLTAuMjEtMC44OS0wLjUzLTEuNzQtMC45Ni0yLjU1Yy0wLjEyLTAuMjUtMC4wOC0wLjU0LDAuMDktMC43NWwyLjI1LTIuNzcgICAgIGMwLjIzLTAuMjgsMC4yMS0wLjY5LTAuMDUtMC45NGwtMS44Ny0xLjg3Yy0wLjI1LTAuMjUtMC42NS0wLjI3LTAuOTItMC4wNWwtMi43LDIuMTdjLTAuMjIsMC4xNy0wLjUxLDAuMTktMC43NSwwLjA2ICAgICBjLTAuNzUtMC40NS0xLjU2LTAuODEtMi40LTEuMDZjLTAuMjYtMC4wOC0wLjQ1LTAuMzEtMC40OC0wLjU4bC0wLjM5LTMuNDRDMTcuMTYsMzkuMTIsMTYuODYsMzksMTYuNTEsMzloLTIuNjUgICAgIGMtMC4zNSwwLTAuNjUsMC4xMy0wLjY5LDAuNDhsLTAuMzgsMy40MmMtMC4wNCwwLjI4LTAuMjUsMC41MS0wLjUyLDAuNTZjLTAuOTMsMC4yNC0xLjgyLDAuNi0yLjY2LDEuMDggICAgIGMtMC4yNCwwLjEzLTAuNTMsMC4xMS0wLjc1LTAuMDZMNi4yLDQyLjM0Yy0wLjI3LTAuMjItMC42Ny0wLjItMC45MiwwLjA0bC0xLjg5LDEuODhjLTAuMjUsMC4yNS0wLjI3LDAuNjUtMC4wNSwwLjkybDIuMTcsMi43MSAgICAgYzAuMTcsMC4yMiwwLjE5LDAuNTEsMC4wNiwwLjc1Yy0wLjQ1LDAuODMtMC43OSwxLjcxLTEuMDEsMi42MmMtMC4wNywwLjI4LTAuMzIsMC40OS0wLjYxLDAuNTJsLTMuNDMsMC4zOCAgICAgQzAuMTksNTIuMjEtMC4wNCw1Mi41MiwwLDUyLjg1bDAsMi42NmMtMC4wNCwwLjMzLDAuMTksMC42NCwwLjUyLDAuNjlsMy42OSwwLjQxYzAuMjcsMC4wMywwLjQ5LDAuMjIsMC41NiwwLjQ3ICAgICBjMC4yMiwwLjY4LDAuNSwxLjM0LDAuODUsMS45N2MwLjEzLDAuMjQsMC4xLDAuNTQtMC4wNywwLjc1bC0yLjIyLDIuNzVjLTAuMjIsMC4yNy0wLjIsMC42NywwLjA1LDAuOTJsMS44NywxLjg3ICAgICBjMC4yNSwwLjI1LDAuNjUsMC4yNywwLjkyLDAuMDVsMi43My0yLjE5YzAuMjMtMC4xOCwwLjU0LTAuMiwwLjc5LTAuMDVjMC43MiwwLjQxLDEuNDksMC43MywyLjI4LDAuOTYgICAgIGMwLjI4LDAuMDcsMC40OCwwLjMxLDAuNTEsMC41OWwwLjQsMy42OWMwLjA0LDAuMzUsMC4zNCwwLjYyLDAuNjksMC42MWwyLjY1LDBjMC4zNSwwLDAuNjUtMC4yNiwwLjY5LTAuNjFsMC4zOS0zLjY1ICAgICBjMC4wMy0wLjI4LDAuMjMtMC41MSwwLjUtMC41OGMwLjg5LTAuMjQsMS43NS0wLjYsMi41NS0xLjA2YzAuMjQtMC4xMywwLjU0LTAuMSwwLjc1LDAuMDdsMi43NywyLjI1ICAgICBjMC4yOCwwLjIyLDAuNjcsMC4yLDAuOTItMC4wNWwxLjg3LTEuODdjMC4yNS0wLjI1LDAuMjctMC42NSwwLjA1LTAuOTJsLTIuMjQtMi44M2MtMC4xNi0wLjIyLTAuMTktMC41MS0wLjA2LTAuNzUgICAgIGMwLjMyLTAuNTksMC41OC0xLjIxLDAuNzgtMS44NWMwLjA4LTAuMjYsMC4zMS0wLjQ2LDAuNTgtMC40OWwzLjc2LTAuNDFjMC4zNS0wLjA0LDAuNDgtMC4zNCwwLjQ4LTAuNjl2LTIuNjUgICAgIEMzMC4wMSw1Mi41MSwyOS44OCw1Mi4yMSwyOS41Myw1Mi4xN3ogTTE1LjAxLDU5LjM3Yy0zLjA0LDAtNS41MS0yLjQ2LTUuNTEtNS41YzAtMy4wNCwyLjQ2LTUuNTEsNS41LTUuNTEgICAgIGMzLjA0LDAsNS41MSwyLjQ2LDUuNTEsNS41YzAsMCwwLDAuMDEsMCwwLjAxQzIwLjUxLDU2LjkxLDE4LjA1LDU5LjM3LDE1LjAxLDU5LjM3eiIvPiYjeGE7CQk8L2c+JiN4YTsJPC9nPiYjeGE7PC9nPiYjeGE7PC9zdmc+;fontColor=#FFFFFF;" vertex="1" parent="1">
          <mxGeometry x="862" y="582" width="52" height="68" as="geometry" />
        </mxCell>
        <mxCell id="hTers9WlESxGfoSTvFPv-20" value="配置管理1" style="shape=image;verticalLabelPosition=bottom;labelBackgroundColor=#8BC63E;verticalAlign=top;aspect=fixed;imageAspect=0;image=data:image/svg+xml,PHN2ZyB4bWxuczpjYz0iaHR0cDovL2NyZWF0aXZlY29tbW9ucy5vcmcvbnMjIiB4bWxuczpkYz0iaHR0cDovL3B1cmwub3JnL2RjL2VsZW1lbnRzLzEuMS8iIHhtbG5zOmlua3NjYXBlPSJodHRwOi8vd3d3Lmlua3NjYXBlLm9yZy9uYW1lc3BhY2VzL2lua3NjYXBlIiB4bWxuczpyZGY9Imh0dHA6Ly93d3cudzMub3JnLzE5OTkvMDIvMjItcmRmLXN5bnRheC1ucyMiIHhtbG5zOnNvZGlwb2RpPSJodHRwOi8vc29kaXBvZGkuc291cmNlZm9yZ2UubmV0L0RURC9zb2RpcG9kaS0wLmR0ZCIgeG1sbnM6c3ZnPSJodHRwOi8vd3d3LnczLm9yZy8yMDAwL3N2ZyIgeG1sbnM9Imh0dHA6Ly93d3cudzMub3JnLzIwMDAvc3ZnIiB4bWxuczp4bGluaz0iaHR0cDovL3d3dy53My5vcmcvMTk5OS94bGluayIgdmVyc2lvbj0iMS4xIiBpZD0ic3ZnMjA1MzciIGlua3NjYXBlOnZlcnNpb249IjAuOTIuMyAoMjQwNTU0NiwgMjAxOC0wMy0xMSkiIHNvZGlwb2RpOmRvY25hbWU9IndlYl9zZXJ2ZXJfNC5zdmciIHg9IjBweCIgeT0iMHB4IiB2aWV3Qm94PSIwIDAgNTEuNjYgNjcuNTEiIHN0eWxlPSJlbmFibGUtYmFja2dyb3VuZDpuZXcgMCAwIDUxLjY2IDY3LjUxOyIgeG1sOnNwYWNlPSJwcmVzZXJ2ZSI+JiN4YTs8c29kaXBvZGk6bmFtZWR2aWV3IGJvcmRlcmNvbG9yPSIjNjY2NjY2IiBib3JkZXJvcGFjaXR5PSIxIiBmaXQtbWFyZ2luLWJvdHRvbT0iMCIgZml0LW1hcmdpbi1sZWZ0PSIwIiBmaXQtbWFyZ2luLXJpZ2h0PSIwIiBmaXQtbWFyZ2luLXRvcD0iMCIgZ3JpZHRvbGVyYW5jZT0iMTAiIGd1aWRldG9sZXJhbmNlPSIxMCIgaWQ9Im5hbWVkdmlldzIwNTM5IiBpbmtzY2FwZTpjdXJyZW50LWxheWVyPSJzdmcyMDUzNyIgaW5rc2NhcGU6Y3g9IjM0LjQzOTI2NSIgaW5rc2NhcGU6Y3k9IjQ1LjAwMzU5NSIgaW5rc2NhcGU6cGFnZW9wYWNpdHk9IjAiIGlua3NjYXBlOnBhZ2VzaGFkb3c9IjIiIGlua3NjYXBlOndpbmRvdy1oZWlnaHQ9IjEwMTciIGlua3NjYXBlOndpbmRvdy1tYXhpbWl6ZWQ9IjEiIGlua3NjYXBlOndpbmRvdy13aWR0aD0iMTkyMCIgaW5rc2NhcGU6d2luZG93LXg9Ii04IiBpbmtzY2FwZTp3aW5kb3cteT0iLTgiIGlua3NjYXBlOnpvb209IjkuNDIzMjc3MyIgb2JqZWN0dG9sZXJhbmNlPSIxMCIgcGFnZWNvbG9yPSIjZmZmZmZmIiBzaG93Z3JpZD0iZmFsc2UiPiYjeGE7CTwvc29kaXBvZGk6bmFtZWR2aWV3PiYjeGE7PGcgaWQ9ImcyMDUzNSIgdHJhbnNmb3JtPSJ0cmFuc2xhdGUoLTAuNzUsLTAuNzQ1MzY4KSI+JiN4YTsJPHRpdGxlIGlkPSJ0aXRsZTIwNDYwIj5QYWdlLTE8L3RpdGxlPiYjeGE7CTxnIGlkPSJncm91cDc4NTktMSIgdHJhbnNmb3JtPSJ0cmFuc2xhdGUoMC43NSwtMC43NTAwMTIpIj4mI3hhOwkJPHRpdGxlIGlkPSJ0aXRsZTIwNDYyIj5XZWIgU2VydmVyICM0PC90aXRsZT4mI3hhOwkJPGcgaWQ9InNoYXBlNzg2MC0yIiB0cmFuc2Zvcm09InRyYW5zbGF0ZSgwLC02Ljc1NDYyKSI+JiN4YTsJCQk8dGl0bGUgaWQ9InRpdGxlMjA0NjQiPnBvbHlnb24yNTA0LjIzODk8L3RpdGxlPiYjeGE7CQkJPHBhdGggaWQ9InBhdGgyMDQ2NiIgaW5rc2NhcGU6Y29ubmVjdG9yLWN1cnZhdHVyZT0iMCIgc3R5bGU9ImZpbGw6IzU2NjE2RDsiIGQ9Ik0wLDQxLjI1aDAuNzVWMzlIMHYtMy43NWgwLjc1VjMzSDB2LTNoMC43NSAgICAgdi0yLjI1SDBWMjRoMC43NXYtMi4yNUgwVjE4aDAuNzV2LTIuMjVIMHYtNy41aDM2Ljc1VjY5SDBWNDEuMjV6Ii8+JiN4YTsJCTwvZz4mI3hhOwkJPGcgaWQ9InNoYXBlNzg2MS00IiB0cmFuc2Zvcm09InRyYW5zbGF0ZSgyMy4yNSwtNTEuNzU0NikiPiYjeGE7CQkJPHRpdGxlIGlkPSJ0aXRsZTIwNDY5Ij5yZWN0MjUwNi4yMzkwPC90aXRsZT4mI3hhOwkJCTxyZWN0IGlkPSJyZWN0MjA0NzEiIHk9IjY2Ljc1IiB3aWR0aD0iMTMuNSIgaGVpZ2h0PSIyLjI1Ii8+JiN4YTsJCTwvZz4mI3hhOwkJPGcgaWQ9InNoYXBlNzg2Mi02IiB0cmFuc2Zvcm09InRyYW5zbGF0ZSgyMy4yNSwtNDUuNzU0NikiPiYjeGE7CQkJPHRpdGxlIGlkPSJ0aXRsZTIwNDc0Ij5yZWN0MjUwOC4yMzkxPC90aXRsZT4mI3hhOwkJCTxyZWN0IGlkPSJyZWN0MjA0NzYiIHk9IjY2Ljc1IiB3aWR0aD0iMTMuNSIgaGVpZ2h0PSIyLjI1Ii8+JiN4YTsJCTwvZz4mI3hhOwkJPGcgaWQ9InNoYXBlNzg2My04IiB0cmFuc2Zvcm09InRyYW5zbGF0ZSgyMy4yNSwtNTcuNzU0NikiPiYjeGE7CQkJPHRpdGxlIGlkPSJ0aXRsZTIwNDc5Ij5yZWN0MjUxMC4yMzkyPC90aXRsZT4mI3hhOwkJCTxyZWN0IGlkPSJyZWN0MjA0ODEiIHk9IjY2Ljc1IiB3aWR0aD0iMTMuNSIgaGVpZ2h0PSIyLjI1Ii8+JiN4YTsJCTwvZz4mI3hhOwkJPGcgaWQ9InNoYXBlNzg2NC0xMCIgdHJhbnNmb3JtPSJ0cmFuc2xhdGUoMC43NSwtNTEuNzU0NikiPiYjeGE7CQkJPHRpdGxlIGlkPSJ0aXRsZTIwNDg0Ij5yZWN0MjUxMi4yMzkzPC90aXRsZT4mI3hhOwkJCTxyZWN0IGlkPSJyZWN0MjA0ODYiIHk9IjY2Ljc1IiBzdHlsZT0iZmlsbDojMzMzMzMzOyIgd2lkdGg9IjE2LjUiIGhlaWdodD0iMi4yNSIvPiYjeGE7CQk8L2c+JiN4YTsJCTxnIGlkPSJzaGFwZTc4NjUtMTIiIHRyYW5zZm9ybT0idHJhbnNsYXRlKDAuNzUsLTQ1Ljc1NDYpIj4mI3hhOwkJCTx0aXRsZSBpZD0idGl0bGUyMDQ4OSI+cmVjdDI1MTQuMjM5NDwvdGl0bGU+JiN4YTsJCQk8cmVjdCBpZD0icmVjdDIwNDkxIiB5PSI2Ni43NSIgc3R5bGU9ImZpbGw6IzMzMzMzMzsiIHdpZHRoPSIxNi41IiBoZWlnaHQ9IjIuMjUiLz4mI3hhOwkJPC9nPiYjeGE7CQk8ZyBpZD0ic2hhcGU3ODY2LTE0IiB0cmFuc2Zvcm09InRyYW5zbGF0ZSgwLjc1LC01Ny43NTQ2KSI+JiN4YTsJCQk8dGl0bGUgaWQ9InRpdGxlMjA0OTQiPnJlY3QyNTE2LjIzOTU8L3RpdGxlPiYjeGE7CQkJPHJlY3QgaWQ9InJlY3QyMDQ5NiIgeT0iNjYuNzUiIHN0eWxlPSJmaWxsOiMzMzMzMzM7IiB3aWR0aD0iMTYuNSIgaGVpZ2h0PSIyLjI1Ii8+JiN4YTsJCTwvZz4mI3hhOwkJPGcgaWQ9InNoYXBlNzg2Ny0xNiIgdHJhbnNmb3JtPSJ0cmFuc2xhdGUoMjMuMjUsLTYuNzU0NjIpIj4mI3hhOwkJCTx0aXRsZSBpZD0idGl0bGUyMDQ5OSI+cG9seWdvbjI1MTguMjM5NjwvdGl0bGU+JiN4YTsJCQk8cGF0aCBpZD0icGF0aDIwNTAxIiBpbmtzY2FwZTpjb25uZWN0b3ItY3VydmF0dXJlPSIwIiBzdHlsZT0iZmlsbDojNDc0RjU5OyIgZD0iTTExLjI1LDE1Ljc1VjE4SDB2My43NWgxMS4yNVYyNEgwdjMuNzVoMTEuMjUgICAgIFYzMEgwdjM5aDEzLjVWOC4yNUgwdjcuNUgxMS4yNXoiLz4mI3hhOwkJPC9nPiYjeGE7CQk8ZyBpZD0ic2hhcGU3ODY4LTE4IiB0cmFuc2Zvcm09InRyYW5zbGF0ZSgwLjc1LC01Ny43NTQ2KSI+JiN4YTsJCQk8dGl0bGUgaWQ9InRpdGxlMjA1MDQiPnBvbHlnb24yNTIwLjIzOTc8L3RpdGxlPiYjeGE7CQkJPHJlY3QgaWQ9InJlY3QyMDUwNiIgeT0iNjYuNzUiIHN0eWxlPSJmaWxsOm5vbmU7IiB3aWR0aD0iMjQuNzUiIGhlaWdodD0iMi4yNSIvPiYjeGE7CQk8L2c+JiN4YTsJCTxnIGlkPSJzaGFwZTc4NjktMjAiIHRyYW5zZm9ybT0idHJhbnNsYXRlKDAuNzUsLTU3Ljc1NDYpIj4mI3hhOwkJCTx0aXRsZSBpZD0idGl0bGUyMDUwOSI+cG9seWxpbmUyNTIyLjIzOTg8L3RpdGxlPiYjeGE7CQkJPHJlY3QgaWQ9InJlY3QyMDUxMSIgeT0iNjYuNzUiIHN0eWxlPSJmaWxsOm5vbmU7IiB3aWR0aD0iMjQuNzUiIGhlaWdodD0iMi4yNSIvPiYjeGE7CQk8L2c+JiN4YTsJCTxnIGlkPSJzaGFwZTc4NzAtMjIiIHRyYW5zZm9ybT0idHJhbnNsYXRlKDE3LjI1LC01Ny43NTQ2KSI+JiN4YTsJCQk8dGl0bGUgaWQ9InRpdGxlMjA1MTQiPnBvbHlnb24yNTI0LjIzOTk8L3RpdGxlPiYjeGE7CQkJPHJlY3QgaWQ9InJlY3QyMDUxNiIgeT0iNjYuNzUiIHN0eWxlPSJmaWxsOiM1NUE1RTQ7IiB3aWR0aD0iNiIgaGVpZ2h0PSIyLjI1Ii8+JiN4YTsJCTwvZz4mI3hhOwkJPGcgaWQ9InNoYXBlNzg3MS0yNCIgdHJhbnNmb3JtPSJ0cmFuc2xhdGUoMTcuMjUsLTUxLjc1NDYpIj4mI3hhOwkJCTx0aXRsZSBpZD0idGl0bGUyMDUxOSI+cG9seWdvbjI1MjYuMjQwMDwvdGl0bGU+JiN4YTsJCQk8cmVjdCBpZD0icmVjdDIwNTIxIiB5PSI2Ni43NSIgc3R5bGU9ImZpbGw6IzU1QTVFNDsiIHdpZHRoPSI2IiBoZWlnaHQ9IjIuMjUiLz4mI3hhOwkJPC9nPiYjeGE7CQk8ZyBpZD0ic2hhcGU3ODcyLTI2IiB0cmFuc2Zvcm09InRyYW5zbGF0ZSgxNy4yNSwtNDUuNzU0NikiPiYjeGE7CQkJPHRpdGxlIGlkPSJ0aXRsZTIwNTI0Ij5wb2x5Z29uMjUyOC4yNDAxPC90aXRsZT4mI3hhOwkJCTxyZWN0IGlkPSJyZWN0MjA1MjYiIHk9IjY2Ljc1IiBzdHlsZT0iZmlsbDojNTVBNUU0OyIgd2lkdGg9IjYiIGhlaWdodD0iMi4yNSIvPiYjeGE7CQk8L2c+JiN4YTsJCTxnIGlkPSJzaGFwZTc4NzMtMjgiIHRyYW5zZm9ybT0idHJhbnNsYXRlKDIxLjY1ODYpIj4mI3hhOwkJCTx0aXRsZSBpZD0idGl0bGUyMDUyOSI+cGF0aDI1MzAuMjQwMjwvdGl0bGU+JiN4YTsJCQk8cGF0aCBpZD0icGF0aDIwNTMxIiBpbmtzY2FwZTpjb25uZWN0b3ItY3VydmF0dXJlPSIwIiBzdHlsZT0iZmlsbDojOTI3M0I2OyIgZD0iTTI5LjUzLDUyLjE3bC0zLjU5LTAuMzkgICAgIGMtMC4yOC0wLjAzLTAuNTEtMC4yNC0wLjU2LTAuNTFjLTAuMjEtMC44OS0wLjUzLTEuNzQtMC45Ni0yLjU1Yy0wLjEyLTAuMjUtMC4wOC0wLjU0LDAuMDktMC43NWwyLjI1LTIuNzcgICAgIGMwLjIzLTAuMjgsMC4yMS0wLjY5LTAuMDUtMC45NGwtMS44Ny0xLjg3Yy0wLjI1LTAuMjUtMC42NS0wLjI3LTAuOTItMC4wNWwtMi43LDIuMTdjLTAuMjIsMC4xNy0wLjUxLDAuMTktMC43NSwwLjA2ICAgICBjLTAuNzUtMC40NS0xLjU2LTAuODEtMi40LTEuMDZjLTAuMjYtMC4wOC0wLjQ1LTAuMzEtMC40OC0wLjU4bC0wLjM5LTMuNDRDMTcuMTYsMzkuMTIsMTYuODYsMzksMTYuNTEsMzloLTIuNjUgICAgIGMtMC4zNSwwLTAuNjUsMC4xMy0wLjY5LDAuNDhsLTAuMzgsMy40MmMtMC4wNCwwLjI4LTAuMjUsMC41MS0wLjUyLDAuNTZjLTAuOTMsMC4yNC0xLjgyLDAuNi0yLjY2LDEuMDggICAgIGMtMC4yNCwwLjEzLTAuNTMsMC4xMS0wLjc1LTAuMDZMNi4yLDQyLjM0Yy0wLjI3LTAuMjItMC42Ny0wLjItMC45MiwwLjA0bC0xLjg5LDEuODhjLTAuMjUsMC4yNS0wLjI3LDAuNjUtMC4wNSwwLjkybDIuMTcsMi43MSAgICAgYzAuMTcsMC4yMiwwLjE5LDAuNTEsMC4wNiwwLjc1Yy0wLjQ1LDAuODMtMC43OSwxLjcxLTEuMDEsMi42MmMtMC4wNywwLjI4LTAuMzIsMC40OS0wLjYxLDAuNTJsLTMuNDMsMC4zOCAgICAgQzAuMTksNTIuMjEtMC4wNCw1Mi41MiwwLDUyLjg1bDAsMi42NmMtMC4wNCwwLjMzLDAuMTksMC42NCwwLjUyLDAuNjlsMy42OSwwLjQxYzAuMjcsMC4wMywwLjQ5LDAuMjIsMC41NiwwLjQ3ICAgICBjMC4yMiwwLjY4LDAuNSwxLjM0LDAuODUsMS45N2MwLjEzLDAuMjQsMC4xLDAuNTQtMC4wNywwLjc1bC0yLjIyLDIuNzVjLTAuMjIsMC4yNy0wLjIsMC42NywwLjA1LDAuOTJsMS44NywxLjg3ICAgICBjMC4yNSwwLjI1LDAuNjUsMC4yNywwLjkyLDAuMDVsMi43My0yLjE5YzAuMjMtMC4xOCwwLjU0LTAuMiwwLjc5LTAuMDVjMC43MiwwLjQxLDEuNDksMC43MywyLjI4LDAuOTYgICAgIGMwLjI4LDAuMDcsMC40OCwwLjMxLDAuNTEsMC41OWwwLjQsMy42OWMwLjA0LDAuMzUsMC4zNCwwLjYyLDAuNjksMC42MWwyLjY1LDBjMC4zNSwwLDAuNjUtMC4yNiwwLjY5LTAuNjFsMC4zOS0zLjY1ICAgICBjMC4wMy0wLjI4LDAuMjMtMC41MSwwLjUtMC41OGMwLjg5LTAuMjQsMS43NS0wLjYsMi41NS0xLjA2YzAuMjQtMC4xMywwLjU0LTAuMSwwLjc1LDAuMDdsMi43NywyLjI1ICAgICBjMC4yOCwwLjIyLDAuNjcsMC4yLDAuOTItMC4wNWwxLjg3LTEuODdjMC4yNS0wLjI1LDAuMjctMC42NSwwLjA1LTAuOTJsLTIuMjQtMi44M2MtMC4xNi0wLjIyLTAuMTktMC41MS0wLjA2LTAuNzUgICAgIGMwLjMyLTAuNTksMC41OC0xLjIxLDAuNzgtMS44NWMwLjA4LTAuMjYsMC4zMS0wLjQ2LDAuNTgtMC40OWwzLjc2LTAuNDFjMC4zNS0wLjA0LDAuNDgtMC4zNCwwLjQ4LTAuNjl2LTIuNjUgICAgIEMzMC4wMSw1Mi41MSwyOS44OCw1Mi4yMSwyOS41Myw1Mi4xN3ogTTE1LjAxLDU5LjM3Yy0zLjA0LDAtNS41MS0yLjQ2LTUuNTEtNS41YzAtMy4wNCwyLjQ2LTUuNTEsNS41LTUuNTEgICAgIGMzLjA0LDAsNS41MSwyLjQ2LDUuNTEsNS41YzAsMCwwLDAuMDEsMCwwLjAxQzIwLjUxLDU2LjkxLDE4LjA1LDU5LjM3LDE1LjAxLDU5LjM3eiIvPiYjeGE7CQk8L2c+JiN4YTsJPC9nPiYjeGE7PC9nPiYjeGE7PC9zdmc+;fontColor=#FFFFFF;" vertex="1" parent="1">
          <mxGeometry x="860" y="401" width="52" height="68" as="geometry" />
        </mxCell>
        <mxCell id="hTers9WlESxGfoSTvFPv-22" value="Redis 分布式缓存" style="shadow=0;html=1;strokeColor=none;labelPosition=center;verticalLabelPosition=top;verticalAlign=bottom;shape=mxgraph.mscae.cloud.azure_storage;fillColor=#FFFFFF;rounded=0;fontSize=10;fontColor=#FFFFFF;align=center;" vertex="1" parent="1">
          <mxGeometry x="782" y="476" width="50" height="43" as="geometry" />
        </mxCell>
        <mxCell id="hTers9WlESxGfoSTvFPv-23" value="RDMS" style="shadow=0;html=1;strokeColor=none;fillColor=#FFFFFF;labelPosition=center;verticalLabelPosition=top;verticalAlign=bottom;shape=mxgraph.azure.vhd;rounded=0;fontSize=10;fontColor=#FFFFFF;align=center;" vertex="1" parent="1">
          <mxGeometry x="782" y="582" width="40" height="50" as="geometry" />
        </mxCell>
        <mxCell id="hTers9WlESxGfoSTvFPv-26" value="" style="rounded=1;whiteSpace=wrap;html=1;shadow=0;strokeWidth=2;fillColor=none;fontSize=12;fontColor=#000000;align=center;strokeColor=#FFFFFF;arcSize=9;" vertex="1" parent="1">
          <mxGeometry x="988" y="391.5" width="170" height="279.5" as="geometry" />
        </mxCell>
        <mxCell id="hTers9WlESxGfoSTvFPv-27" value="APP2" style="shape=image;verticalLabelPosition=bottom;labelBackgroundColor=#8BC63E;verticalAlign=top;aspect=fixed;imageAspect=0;image=data:image/svg+xml,PHN2ZyB4bWxuczpjYz0iaHR0cDovL2NyZWF0aXZlY29tbW9ucy5vcmcvbnMjIiB4bWxuczpkYz0iaHR0cDovL3B1cmwub3JnL2RjL2VsZW1lbnRzLzEuMS8iIHhtbG5zOmlua3NjYXBlPSJodHRwOi8vd3d3Lmlua3NjYXBlLm9yZy9uYW1lc3BhY2VzL2lua3NjYXBlIiB4bWxuczpyZGY9Imh0dHA6Ly93d3cudzMub3JnLzE5OTkvMDIvMjItcmRmLXN5bnRheC1ucyMiIHhtbG5zOnNvZGlwb2RpPSJodHRwOi8vc29kaXBvZGkuc291cmNlZm9yZ2UubmV0L0RURC9zb2RpcG9kaS0wLmR0ZCIgeG1sbnM6c3ZnPSJodHRwOi8vd3d3LnczLm9yZy8yMDAwL3N2ZyIgeG1sbnM9Imh0dHA6Ly93d3cudzMub3JnLzIwMDAvc3ZnIiB4bWxuczp4bGluaz0iaHR0cDovL3d3dy53My5vcmcvMTk5OS94bGluayIgdmVyc2lvbj0iMS4xIiBpZD0ic3ZnMjA1MzciIGlua3NjYXBlOnZlcnNpb249IjAuOTIuMyAoMjQwNTU0NiwgMjAxOC0wMy0xMSkiIHNvZGlwb2RpOmRvY25hbWU9IndlYl9zZXJ2ZXJfNC5zdmciIHg9IjBweCIgeT0iMHB4IiB2aWV3Qm94PSIwIDAgNTEuNjYgNjcuNTEiIHN0eWxlPSJlbmFibGUtYmFja2dyb3VuZDpuZXcgMCAwIDUxLjY2IDY3LjUxOyIgeG1sOnNwYWNlPSJwcmVzZXJ2ZSI+JiN4YTs8c29kaXBvZGk6bmFtZWR2aWV3IGJvcmRlcmNvbG9yPSIjNjY2NjY2IiBib3JkZXJvcGFjaXR5PSIxIiBmaXQtbWFyZ2luLWJvdHRvbT0iMCIgZml0LW1hcmdpbi1sZWZ0PSIwIiBmaXQtbWFyZ2luLXJpZ2h0PSIwIiBmaXQtbWFyZ2luLXRvcD0iMCIgZ3JpZHRvbGVyYW5jZT0iMTAiIGd1aWRldG9sZXJhbmNlPSIxMCIgaWQ9Im5hbWVkdmlldzIwNTM5IiBpbmtzY2FwZTpjdXJyZW50LWxheWVyPSJzdmcyMDUzNyIgaW5rc2NhcGU6Y3g9IjM0LjQzOTI2NSIgaW5rc2NhcGU6Y3k9IjQ1LjAwMzU5NSIgaW5rc2NhcGU6cGFnZW9wYWNpdHk9IjAiIGlua3NjYXBlOnBhZ2VzaGFkb3c9IjIiIGlua3NjYXBlOndpbmRvdy1oZWlnaHQ9IjEwMTciIGlua3NjYXBlOndpbmRvdy1tYXhpbWl6ZWQ9IjEiIGlua3NjYXBlOndpbmRvdy13aWR0aD0iMTkyMCIgaW5rc2NhcGU6d2luZG93LXg9Ii04IiBpbmtzY2FwZTp3aW5kb3cteT0iLTgiIGlua3NjYXBlOnpvb209IjkuNDIzMjc3MyIgb2JqZWN0dG9sZXJhbmNlPSIxMCIgcGFnZWNvbG9yPSIjZmZmZmZmIiBzaG93Z3JpZD0iZmFsc2UiPiYjeGE7CTwvc29kaXBvZGk6bmFtZWR2aWV3PiYjeGE7PGcgaWQ9ImcyMDUzNSIgdHJhbnNmb3JtPSJ0cmFuc2xhdGUoLTAuNzUsLTAuNzQ1MzY4KSI+JiN4YTsJPHRpdGxlIGlkPSJ0aXRsZTIwNDYwIj5QYWdlLTE8L3RpdGxlPiYjeGE7CTxnIGlkPSJncm91cDc4NTktMSIgdHJhbnNmb3JtPSJ0cmFuc2xhdGUoMC43NSwtMC43NTAwMTIpIj4mI3hhOwkJPHRpdGxlIGlkPSJ0aXRsZTIwNDYyIj5XZWIgU2VydmVyICM0PC90aXRsZT4mI3hhOwkJPGcgaWQ9InNoYXBlNzg2MC0yIiB0cmFuc2Zvcm09InRyYW5zbGF0ZSgwLC02Ljc1NDYyKSI+JiN4YTsJCQk8dGl0bGUgaWQ9InRpdGxlMjA0NjQiPnBvbHlnb24yNTA0LjIzODk8L3RpdGxlPiYjeGE7CQkJPHBhdGggaWQ9InBhdGgyMDQ2NiIgaW5rc2NhcGU6Y29ubmVjdG9yLWN1cnZhdHVyZT0iMCIgc3R5bGU9ImZpbGw6IzU2NjE2RDsiIGQ9Ik0wLDQxLjI1aDAuNzVWMzlIMHYtMy43NWgwLjc1VjMzSDB2LTNoMC43NSAgICAgdi0yLjI1SDBWMjRoMC43NXYtMi4yNUgwVjE4aDAuNzV2LTIuMjVIMHYtNy41aDM2Ljc1VjY5SDBWNDEuMjV6Ii8+JiN4YTsJCTwvZz4mI3hhOwkJPGcgaWQ9InNoYXBlNzg2MS00IiB0cmFuc2Zvcm09InRyYW5zbGF0ZSgyMy4yNSwtNTEuNzU0NikiPiYjeGE7CQkJPHRpdGxlIGlkPSJ0aXRsZTIwNDY5Ij5yZWN0MjUwNi4yMzkwPC90aXRsZT4mI3hhOwkJCTxyZWN0IGlkPSJyZWN0MjA0NzEiIHk9IjY2Ljc1IiB3aWR0aD0iMTMuNSIgaGVpZ2h0PSIyLjI1Ii8+JiN4YTsJCTwvZz4mI3hhOwkJPGcgaWQ9InNoYXBlNzg2Mi02IiB0cmFuc2Zvcm09InRyYW5zbGF0ZSgyMy4yNSwtNDUuNzU0NikiPiYjeGE7CQkJPHRpdGxlIGlkPSJ0aXRsZTIwNDc0Ij5yZWN0MjUwOC4yMzkxPC90aXRsZT4mI3hhOwkJCTxyZWN0IGlkPSJyZWN0MjA0NzYiIHk9IjY2Ljc1IiB3aWR0aD0iMTMuNSIgaGVpZ2h0PSIyLjI1Ii8+JiN4YTsJCTwvZz4mI3hhOwkJPGcgaWQ9InNoYXBlNzg2My04IiB0cmFuc2Zvcm09InRyYW5zbGF0ZSgyMy4yNSwtNTcuNzU0NikiPiYjeGE7CQkJPHRpdGxlIGlkPSJ0aXRsZTIwNDc5Ij5yZWN0MjUxMC4yMzkyPC90aXRsZT4mI3hhOwkJCTxyZWN0IGlkPSJyZWN0MjA0ODEiIHk9IjY2Ljc1IiB3aWR0aD0iMTMuNSIgaGVpZ2h0PSIyLjI1Ii8+JiN4YTsJCTwvZz4mI3hhOwkJPGcgaWQ9InNoYXBlNzg2NC0xMCIgdHJhbnNmb3JtPSJ0cmFuc2xhdGUoMC43NSwtNTEuNzU0NikiPiYjeGE7CQkJPHRpdGxlIGlkPSJ0aXRsZTIwNDg0Ij5yZWN0MjUxMi4yMzkzPC90aXRsZT4mI3hhOwkJCTxyZWN0IGlkPSJyZWN0MjA0ODYiIHk9IjY2Ljc1IiBzdHlsZT0iZmlsbDojMzMzMzMzOyIgd2lkdGg9IjE2LjUiIGhlaWdodD0iMi4yNSIvPiYjeGE7CQk8L2c+JiN4YTsJCTxnIGlkPSJzaGFwZTc4NjUtMTIiIHRyYW5zZm9ybT0idHJhbnNsYXRlKDAuNzUsLTQ1Ljc1NDYpIj4mI3hhOwkJCTx0aXRsZSBpZD0idGl0bGUyMDQ4OSI+cmVjdDI1MTQuMjM5NDwvdGl0bGU+JiN4YTsJCQk8cmVjdCBpZD0icmVjdDIwNDkxIiB5PSI2Ni43NSIgc3R5bGU9ImZpbGw6IzMzMzMzMzsiIHdpZHRoPSIxNi41IiBoZWlnaHQ9IjIuMjUiLz4mI3hhOwkJPC9nPiYjeGE7CQk8ZyBpZD0ic2hhcGU3ODY2LTE0IiB0cmFuc2Zvcm09InRyYW5zbGF0ZSgwLjc1LC01Ny43NTQ2KSI+JiN4YTsJCQk8dGl0bGUgaWQ9InRpdGxlMjA0OTQiPnJlY3QyNTE2LjIzOTU8L3RpdGxlPiYjeGE7CQkJPHJlY3QgaWQ9InJlY3QyMDQ5NiIgeT0iNjYuNzUiIHN0eWxlPSJmaWxsOiMzMzMzMzM7IiB3aWR0aD0iMTYuNSIgaGVpZ2h0PSIyLjI1Ii8+JiN4YTsJCTwvZz4mI3hhOwkJPGcgaWQ9InNoYXBlNzg2Ny0xNiIgdHJhbnNmb3JtPSJ0cmFuc2xhdGUoMjMuMjUsLTYuNzU0NjIpIj4mI3hhOwkJCTx0aXRsZSBpZD0idGl0bGUyMDQ5OSI+cG9seWdvbjI1MTguMjM5NjwvdGl0bGU+JiN4YTsJCQk8cGF0aCBpZD0icGF0aDIwNTAxIiBpbmtzY2FwZTpjb25uZWN0b3ItY3VydmF0dXJlPSIwIiBzdHlsZT0iZmlsbDojNDc0RjU5OyIgZD0iTTExLjI1LDE1Ljc1VjE4SDB2My43NWgxMS4yNVYyNEgwdjMuNzVoMTEuMjUgICAgIFYzMEgwdjM5aDEzLjVWOC4yNUgwdjcuNUgxMS4yNXoiLz4mI3hhOwkJPC9nPiYjeGE7CQk8ZyBpZD0ic2hhcGU3ODY4LTE4IiB0cmFuc2Zvcm09InRyYW5zbGF0ZSgwLjc1LC01Ny43NTQ2KSI+JiN4YTsJCQk8dGl0bGUgaWQ9InRpdGxlMjA1MDQiPnBvbHlnb24yNTIwLjIzOTc8L3RpdGxlPiYjeGE7CQkJPHJlY3QgaWQ9InJlY3QyMDUwNiIgeT0iNjYuNzUiIHN0eWxlPSJmaWxsOm5vbmU7IiB3aWR0aD0iMjQuNzUiIGhlaWdodD0iMi4yNSIvPiYjeGE7CQk8L2c+JiN4YTsJCTxnIGlkPSJzaGFwZTc4NjktMjAiIHRyYW5zZm9ybT0idHJhbnNsYXRlKDAuNzUsLTU3Ljc1NDYpIj4mI3hhOwkJCTx0aXRsZSBpZD0idGl0bGUyMDUwOSI+cG9seWxpbmUyNTIyLjIzOTg8L3RpdGxlPiYjeGE7CQkJPHJlY3QgaWQ9InJlY3QyMDUxMSIgeT0iNjYuNzUiIHN0eWxlPSJmaWxsOm5vbmU7IiB3aWR0aD0iMjQuNzUiIGhlaWdodD0iMi4yNSIvPiYjeGE7CQk8L2c+JiN4YTsJCTxnIGlkPSJzaGFwZTc4NzAtMjIiIHRyYW5zZm9ybT0idHJhbnNsYXRlKDE3LjI1LC01Ny43NTQ2KSI+JiN4YTsJCQk8dGl0bGUgaWQ9InRpdGxlMjA1MTQiPnBvbHlnb24yNTI0LjIzOTk8L3RpdGxlPiYjeGE7CQkJPHJlY3QgaWQ9InJlY3QyMDUxNiIgeT0iNjYuNzUiIHN0eWxlPSJmaWxsOiM1NUE1RTQ7IiB3aWR0aD0iNiIgaGVpZ2h0PSIyLjI1Ii8+JiN4YTsJCTwvZz4mI3hhOwkJPGcgaWQ9InNoYXBlNzg3MS0yNCIgdHJhbnNmb3JtPSJ0cmFuc2xhdGUoMTcuMjUsLTUxLjc1NDYpIj4mI3hhOwkJCTx0aXRsZSBpZD0idGl0bGUyMDUxOSI+cG9seWdvbjI1MjYuMjQwMDwvdGl0bGU+JiN4YTsJCQk8cmVjdCBpZD0icmVjdDIwNTIxIiB5PSI2Ni43NSIgc3R5bGU9ImZpbGw6IzU1QTVFNDsiIHdpZHRoPSI2IiBoZWlnaHQ9IjIuMjUiLz4mI3hhOwkJPC9nPiYjeGE7CQk8ZyBpZD0ic2hhcGU3ODcyLTI2IiB0cmFuc2Zvcm09InRyYW5zbGF0ZSgxNy4yNSwtNDUuNzU0NikiPiYjeGE7CQkJPHRpdGxlIGlkPSJ0aXRsZTIwNTI0Ij5wb2x5Z29uMjUyOC4yNDAxPC90aXRsZT4mI3hhOwkJCTxyZWN0IGlkPSJyZWN0MjA1MjYiIHk9IjY2Ljc1IiBzdHlsZT0iZmlsbDojNTVBNUU0OyIgd2lkdGg9IjYiIGhlaWdodD0iMi4yNSIvPiYjeGE7CQk8L2c+JiN4YTsJCTxnIGlkPSJzaGFwZTc4NzMtMjgiIHRyYW5zZm9ybT0idHJhbnNsYXRlKDIxLjY1ODYpIj4mI3hhOwkJCTx0aXRsZSBpZD0idGl0bGUyMDUyOSI+cGF0aDI1MzAuMjQwMjwvdGl0bGU+JiN4YTsJCQk8cGF0aCBpZD0icGF0aDIwNTMxIiBpbmtzY2FwZTpjb25uZWN0b3ItY3VydmF0dXJlPSIwIiBzdHlsZT0iZmlsbDojOTI3M0I2OyIgZD0iTTI5LjUzLDUyLjE3bC0zLjU5LTAuMzkgICAgIGMtMC4yOC0wLjAzLTAuNTEtMC4yNC0wLjU2LTAuNTFjLTAuMjEtMC44OS0wLjUzLTEuNzQtMC45Ni0yLjU1Yy0wLjEyLTAuMjUtMC4wOC0wLjU0LDAuMDktMC43NWwyLjI1LTIuNzcgICAgIGMwLjIzLTAuMjgsMC4yMS0wLjY5LTAuMDUtMC45NGwtMS44Ny0xLjg3Yy0wLjI1LTAuMjUtMC42NS0wLjI3LTAuOTItMC4wNWwtMi43LDIuMTdjLTAuMjIsMC4xNy0wLjUxLDAuMTktMC43NSwwLjA2ICAgICBjLTAuNzUtMC40NS0xLjU2LTAuODEtMi40LTEuMDZjLTAuMjYtMC4wOC0wLjQ1LTAuMzEtMC40OC0wLjU4bC0wLjM5LTMuNDRDMTcuMTYsMzkuMTIsMTYuODYsMzksMTYuNTEsMzloLTIuNjUgICAgIGMtMC4zNSwwLTAuNjUsMC4xMy0wLjY5LDAuNDhsLTAuMzgsMy40MmMtMC4wNCwwLjI4LTAuMjUsMC41MS0wLjUyLDAuNTZjLTAuOTMsMC4yNC0xLjgyLDAuNi0yLjY2LDEuMDggICAgIGMtMC4yNCwwLjEzLTAuNTMsMC4xMS0wLjc1LTAuMDZMNi4yLDQyLjM0Yy0wLjI3LTAuMjItMC42Ny0wLjItMC45MiwwLjA0bC0xLjg5LDEuODhjLTAuMjUsMC4yNS0wLjI3LDAuNjUtMC4wNSwwLjkybDIuMTcsMi43MSAgICAgYzAuMTcsMC4yMiwwLjE5LDAuNTEsMC4wNiwwLjc1Yy0wLjQ1LDAuODMtMC43OSwxLjcxLTEuMDEsMi42MmMtMC4wNywwLjI4LTAuMzIsMC40OS0wLjYxLDAuNTJsLTMuNDMsMC4zOCAgICAgQzAuMTksNTIuMjEtMC4wNCw1Mi41MiwwLDUyLjg1bDAsMi42NmMtMC4wNCwwLjMzLDAuMTksMC42NCwwLjUyLDAuNjlsMy42OSwwLjQxYzAuMjcsMC4wMywwLjQ5LDAuMjIsMC41NiwwLjQ3ICAgICBjMC4yMiwwLjY4LDAuNSwxLjM0LDAuODUsMS45N2MwLjEzLDAuMjQsMC4xLDAuNTQtMC4wNywwLjc1bC0yLjIyLDIuNzVjLTAuMjIsMC4yNy0wLjIsMC42NywwLjA1LDAuOTJsMS44NywxLjg3ICAgICBjMC4yNSwwLjI1LDAuNjUsMC4yNywwLjkyLDAuMDVsMi43My0yLjE5YzAuMjMtMC4xOCwwLjU0LTAuMiwwLjc5LTAuMDVjMC43MiwwLjQxLDEuNDksMC43MywyLjI4LDAuOTYgICAgIGMwLjI4LDAuMDcsMC40OCwwLjMxLDAuNTEsMC41OWwwLjQsMy42OWMwLjA0LDAuMzUsMC4zNCwwLjYyLDAuNjksMC42MWwyLjY1LDBjMC4zNSwwLDAuNjUtMC4yNiwwLjY5LTAuNjFsMC4zOS0zLjY1ICAgICBjMC4wMy0wLjI4LDAuMjMtMC41MSwwLjUtMC41OGMwLjg5LTAuMjQsMS43NS0wLjYsMi41NS0xLjA2YzAuMjQtMC4xMywwLjU0LTAuMSwwLjc1LDAuMDdsMi43NywyLjI1ICAgICBjMC4yOCwwLjIyLDAuNjcsMC4yLDAuOTItMC4wNWwxLjg3LTEuODdjMC4yNS0wLjI1LDAuMjctMC42NSwwLjA1LTAuOTJsLTIuMjQtMi44M2MtMC4xNi0wLjIyLTAuMTktMC41MS0wLjA2LTAuNzUgICAgIGMwLjMyLTAuNTksMC41OC0xLjIxLDAuNzgtMS44NWMwLjA4LTAuMjYsMC4zMS0wLjQ2LDAuNTgtMC40OWwzLjc2LTAuNDFjMC4zNS0wLjA0LDAuNDgtMC4zNCwwLjQ4LTAuNjl2LTIuNjUgICAgIEMzMC4wMSw1Mi41MSwyOS44OCw1Mi4yMSwyOS41Myw1Mi4xN3ogTTE1LjAxLDU5LjM3Yy0zLjA0LDAtNS41MS0yLjQ2LTUuNTEtNS41YzAtMy4wNCwyLjQ2LTUuNTEsNS41LTUuNTEgICAgIGMzLjA0LDAsNS41MSwyLjQ2LDUuNTEsNS41YzAsMCwwLDAuMDEsMCwwLjAxQzIwLjUxLDU2LjkxLDE4LjA1LDU5LjM3LDE1LjAxLDU5LjM3eiIvPiYjeGE7CQk8L2c+JiN4YTsJPC9nPiYjeGE7PC9nPiYjeGE7PC9zdmc+;fontColor=#FFFFFF;" vertex="1" parent="1">
          <mxGeometry x="1086" y="493" width="52" height="68" as="geometry" />
        </mxCell>
        <mxCell id="hTers9WlESxGfoSTvFPv-28" value="APP3" style="shape=image;verticalLabelPosition=bottom;labelBackgroundColor=#8BC63E;verticalAlign=top;aspect=fixed;imageAspect=0;image=data:image/svg+xml,PHN2ZyB4bWxuczpjYz0iaHR0cDovL2NyZWF0aXZlY29tbW9ucy5vcmcvbnMjIiB4bWxuczpkYz0iaHR0cDovL3B1cmwub3JnL2RjL2VsZW1lbnRzLzEuMS8iIHhtbG5zOmlua3NjYXBlPSJodHRwOi8vd3d3Lmlua3NjYXBlLm9yZy9uYW1lc3BhY2VzL2lua3NjYXBlIiB4bWxuczpyZGY9Imh0dHA6Ly93d3cudzMub3JnLzE5OTkvMDIvMjItcmRmLXN5bnRheC1ucyMiIHhtbG5zOnNvZGlwb2RpPSJodHRwOi8vc29kaXBvZGkuc291cmNlZm9yZ2UubmV0L0RURC9zb2RpcG9kaS0wLmR0ZCIgeG1sbnM6c3ZnPSJodHRwOi8vd3d3LnczLm9yZy8yMDAwL3N2ZyIgeG1sbnM9Imh0dHA6Ly93d3cudzMub3JnLzIwMDAvc3ZnIiB4bWxuczp4bGluaz0iaHR0cDovL3d3dy53My5vcmcvMTk5OS94bGluayIgdmVyc2lvbj0iMS4xIiBpZD0ic3ZnMjA1MzciIGlua3NjYXBlOnZlcnNpb249IjAuOTIuMyAoMjQwNTU0NiwgMjAxOC0wMy0xMSkiIHNvZGlwb2RpOmRvY25hbWU9IndlYl9zZXJ2ZXJfNC5zdmciIHg9IjBweCIgeT0iMHB4IiB2aWV3Qm94PSIwIDAgNTEuNjYgNjcuNTEiIHN0eWxlPSJlbmFibGUtYmFja2dyb3VuZDpuZXcgMCAwIDUxLjY2IDY3LjUxOyIgeG1sOnNwYWNlPSJwcmVzZXJ2ZSI+JiN4YTs8c29kaXBvZGk6bmFtZWR2aWV3IGJvcmRlcmNvbG9yPSIjNjY2NjY2IiBib3JkZXJvcGFjaXR5PSIxIiBmaXQtbWFyZ2luLWJvdHRvbT0iMCIgZml0LW1hcmdpbi1sZWZ0PSIwIiBmaXQtbWFyZ2luLXJpZ2h0PSIwIiBmaXQtbWFyZ2luLXRvcD0iMCIgZ3JpZHRvbGVyYW5jZT0iMTAiIGd1aWRldG9sZXJhbmNlPSIxMCIgaWQ9Im5hbWVkdmlldzIwNTM5IiBpbmtzY2FwZTpjdXJyZW50LWxheWVyPSJzdmcyMDUzNyIgaW5rc2NhcGU6Y3g9IjM0LjQzOTI2NSIgaW5rc2NhcGU6Y3k9IjQ1LjAwMzU5NSIgaW5rc2NhcGU6cGFnZW9wYWNpdHk9IjAiIGlua3NjYXBlOnBhZ2VzaGFkb3c9IjIiIGlua3NjYXBlOndpbmRvdy1oZWlnaHQ9IjEwMTciIGlua3NjYXBlOndpbmRvdy1tYXhpbWl6ZWQ9IjEiIGlua3NjYXBlOndpbmRvdy13aWR0aD0iMTkyMCIgaW5rc2NhcGU6d2luZG93LXg9Ii04IiBpbmtzY2FwZTp3aW5kb3cteT0iLTgiIGlua3NjYXBlOnpvb209IjkuNDIzMjc3MyIgb2JqZWN0dG9sZXJhbmNlPSIxMCIgcGFnZWNvbG9yPSIjZmZmZmZmIiBzaG93Z3JpZD0iZmFsc2UiPiYjeGE7CTwvc29kaXBvZGk6bmFtZWR2aWV3PiYjeGE7PGcgaWQ9ImcyMDUzNSIgdHJhbnNmb3JtPSJ0cmFuc2xhdGUoLTAuNzUsLTAuNzQ1MzY4KSI+JiN4YTsJPHRpdGxlIGlkPSJ0aXRsZTIwNDYwIj5QYWdlLTE8L3RpdGxlPiYjeGE7CTxnIGlkPSJncm91cDc4NTktMSIgdHJhbnNmb3JtPSJ0cmFuc2xhdGUoMC43NSwtMC43NTAwMTIpIj4mI3hhOwkJPHRpdGxlIGlkPSJ0aXRsZTIwNDYyIj5XZWIgU2VydmVyICM0PC90aXRsZT4mI3hhOwkJPGcgaWQ9InNoYXBlNzg2MC0yIiB0cmFuc2Zvcm09InRyYW5zbGF0ZSgwLC02Ljc1NDYyKSI+JiN4YTsJCQk8dGl0bGUgaWQ9InRpdGxlMjA0NjQiPnBvbHlnb24yNTA0LjIzODk8L3RpdGxlPiYjeGE7CQkJPHBhdGggaWQ9InBhdGgyMDQ2NiIgaW5rc2NhcGU6Y29ubmVjdG9yLWN1cnZhdHVyZT0iMCIgc3R5bGU9ImZpbGw6IzU2NjE2RDsiIGQ9Ik0wLDQxLjI1aDAuNzVWMzlIMHYtMy43NWgwLjc1VjMzSDB2LTNoMC43NSAgICAgdi0yLjI1SDBWMjRoMC43NXYtMi4yNUgwVjE4aDAuNzV2LTIuMjVIMHYtNy41aDM2Ljc1VjY5SDBWNDEuMjV6Ii8+JiN4YTsJCTwvZz4mI3hhOwkJPGcgaWQ9InNoYXBlNzg2MS00IiB0cmFuc2Zvcm09InRyYW5zbGF0ZSgyMy4yNSwtNTEuNzU0NikiPiYjeGE7CQkJPHRpdGxlIGlkPSJ0aXRsZTIwNDY5Ij5yZWN0MjUwNi4yMzkwPC90aXRsZT4mI3hhOwkJCTxyZWN0IGlkPSJyZWN0MjA0NzEiIHk9IjY2Ljc1IiB3aWR0aD0iMTMuNSIgaGVpZ2h0PSIyLjI1Ii8+JiN4YTsJCTwvZz4mI3hhOwkJPGcgaWQ9InNoYXBlNzg2Mi02IiB0cmFuc2Zvcm09InRyYW5zbGF0ZSgyMy4yNSwtNDUuNzU0NikiPiYjeGE7CQkJPHRpdGxlIGlkPSJ0aXRsZTIwNDc0Ij5yZWN0MjUwOC4yMzkxPC90aXRsZT4mI3hhOwkJCTxyZWN0IGlkPSJyZWN0MjA0NzYiIHk9IjY2Ljc1IiB3aWR0aD0iMTMuNSIgaGVpZ2h0PSIyLjI1Ii8+JiN4YTsJCTwvZz4mI3hhOwkJPGcgaWQ9InNoYXBlNzg2My04IiB0cmFuc2Zvcm09InRyYW5zbGF0ZSgyMy4yNSwtNTcuNzU0NikiPiYjeGE7CQkJPHRpdGxlIGlkPSJ0aXRsZTIwNDc5Ij5yZWN0MjUxMC4yMzkyPC90aXRsZT4mI3hhOwkJCTxyZWN0IGlkPSJyZWN0MjA0ODEiIHk9IjY2Ljc1IiB3aWR0aD0iMTMuNSIgaGVpZ2h0PSIyLjI1Ii8+JiN4YTsJCTwvZz4mI3hhOwkJPGcgaWQ9InNoYXBlNzg2NC0xMCIgdHJhbnNmb3JtPSJ0cmFuc2xhdGUoMC43NSwtNTEuNzU0NikiPiYjeGE7CQkJPHRpdGxlIGlkPSJ0aXRsZTIwNDg0Ij5yZWN0MjUxMi4yMzkzPC90aXRsZT4mI3hhOwkJCTxyZWN0IGlkPSJyZWN0MjA0ODYiIHk9IjY2Ljc1IiBzdHlsZT0iZmlsbDojMzMzMzMzOyIgd2lkdGg9IjE2LjUiIGhlaWdodD0iMi4yNSIvPiYjeGE7CQk8L2c+JiN4YTsJCTxnIGlkPSJzaGFwZTc4NjUtMTIiIHRyYW5zZm9ybT0idHJhbnNsYXRlKDAuNzUsLTQ1Ljc1NDYpIj4mI3hhOwkJCTx0aXRsZSBpZD0idGl0bGUyMDQ4OSI+cmVjdDI1MTQuMjM5NDwvdGl0bGU+JiN4YTsJCQk8cmVjdCBpZD0icmVjdDIwNDkxIiB5PSI2Ni43NSIgc3R5bGU9ImZpbGw6IzMzMzMzMzsiIHdpZHRoPSIxNi41IiBoZWlnaHQ9IjIuMjUiLz4mI3hhOwkJPC9nPiYjeGE7CQk8ZyBpZD0ic2hhcGU3ODY2LTE0IiB0cmFuc2Zvcm09InRyYW5zbGF0ZSgwLjc1LC01Ny43NTQ2KSI+JiN4YTsJCQk8dGl0bGUgaWQ9InRpdGxlMjA0OTQiPnJlY3QyNTE2LjIzOTU8L3RpdGxlPiYjeGE7CQkJPHJlY3QgaWQ9InJlY3QyMDQ5NiIgeT0iNjYuNzUiIHN0eWxlPSJmaWxsOiMzMzMzMzM7IiB3aWR0aD0iMTYuNSIgaGVpZ2h0PSIyLjI1Ii8+JiN4YTsJCTwvZz4mI3hhOwkJPGcgaWQ9InNoYXBlNzg2Ny0xNiIgdHJhbnNmb3JtPSJ0cmFuc2xhdGUoMjMuMjUsLTYuNzU0NjIpIj4mI3hhOwkJCTx0aXRsZSBpZD0idGl0bGUyMDQ5OSI+cG9seWdvbjI1MTguMjM5NjwvdGl0bGU+JiN4YTsJCQk8cGF0aCBpZD0icGF0aDIwNTAxIiBpbmtzY2FwZTpjb25uZWN0b3ItY3VydmF0dXJlPSIwIiBzdHlsZT0iZmlsbDojNDc0RjU5OyIgZD0iTTExLjI1LDE1Ljc1VjE4SDB2My43NWgxMS4yNVYyNEgwdjMuNzVoMTEuMjUgICAgIFYzMEgwdjM5aDEzLjVWOC4yNUgwdjcuNUgxMS4yNXoiLz4mI3hhOwkJPC9nPiYjeGE7CQk8ZyBpZD0ic2hhcGU3ODY4LTE4IiB0cmFuc2Zvcm09InRyYW5zbGF0ZSgwLjc1LC01Ny43NTQ2KSI+JiN4YTsJCQk8dGl0bGUgaWQ9InRpdGxlMjA1MDQiPnBvbHlnb24yNTIwLjIzOTc8L3RpdGxlPiYjeGE7CQkJPHJlY3QgaWQ9InJlY3QyMDUwNiIgeT0iNjYuNzUiIHN0eWxlPSJmaWxsOm5vbmU7IiB3aWR0aD0iMjQuNzUiIGhlaWdodD0iMi4yNSIvPiYjeGE7CQk8L2c+JiN4YTsJCTxnIGlkPSJzaGFwZTc4NjktMjAiIHRyYW5zZm9ybT0idHJhbnNsYXRlKDAuNzUsLTU3Ljc1NDYpIj4mI3hhOwkJCTx0aXRsZSBpZD0idGl0bGUyMDUwOSI+cG9seWxpbmUyNTIyLjIzOTg8L3RpdGxlPiYjeGE7CQkJPHJlY3QgaWQ9InJlY3QyMDUxMSIgeT0iNjYuNzUiIHN0eWxlPSJmaWxsOm5vbmU7IiB3aWR0aD0iMjQuNzUiIGhlaWdodD0iMi4yNSIvPiYjeGE7CQk8L2c+JiN4YTsJCTxnIGlkPSJzaGFwZTc4NzAtMjIiIHRyYW5zZm9ybT0idHJhbnNsYXRlKDE3LjI1LC01Ny43NTQ2KSI+JiN4YTsJCQk8dGl0bGUgaWQ9InRpdGxlMjA1MTQiPnBvbHlnb24yNTI0LjIzOTk8L3RpdGxlPiYjeGE7CQkJPHJlY3QgaWQ9InJlY3QyMDUxNiIgeT0iNjYuNzUiIHN0eWxlPSJmaWxsOiM1NUE1RTQ7IiB3aWR0aD0iNiIgaGVpZ2h0PSIyLjI1Ii8+JiN4YTsJCTwvZz4mI3hhOwkJPGcgaWQ9InNoYXBlNzg3MS0yNCIgdHJhbnNmb3JtPSJ0cmFuc2xhdGUoMTcuMjUsLTUxLjc1NDYpIj4mI3hhOwkJCTx0aXRsZSBpZD0idGl0bGUyMDUxOSI+cG9seWdvbjI1MjYuMjQwMDwvdGl0bGU+JiN4YTsJCQk8cmVjdCBpZD0icmVjdDIwNTIxIiB5PSI2Ni43NSIgc3R5bGU9ImZpbGw6IzU1QTVFNDsiIHdpZHRoPSI2IiBoZWlnaHQ9IjIuMjUiLz4mI3hhOwkJPC9nPiYjeGE7CQk8ZyBpZD0ic2hhcGU3ODcyLTI2IiB0cmFuc2Zvcm09InRyYW5zbGF0ZSgxNy4yNSwtNDUuNzU0NikiPiYjeGE7CQkJPHRpdGxlIGlkPSJ0aXRsZTIwNTI0Ij5wb2x5Z29uMjUyOC4yNDAxPC90aXRsZT4mI3hhOwkJCTxyZWN0IGlkPSJyZWN0MjA1MjYiIHk9IjY2Ljc1IiBzdHlsZT0iZmlsbDojNTVBNUU0OyIgd2lkdGg9IjYiIGhlaWdodD0iMi4yNSIvPiYjeGE7CQk8L2c+JiN4YTsJCTxnIGlkPSJzaGFwZTc4NzMtMjgiIHRyYW5zZm9ybT0idHJhbnNsYXRlKDIxLjY1ODYpIj4mI3hhOwkJCTx0aXRsZSBpZD0idGl0bGUyMDUyOSI+cGF0aDI1MzAuMjQwMjwvdGl0bGU+JiN4YTsJCQk8cGF0aCBpZD0icGF0aDIwNTMxIiBpbmtzY2FwZTpjb25uZWN0b3ItY3VydmF0dXJlPSIwIiBzdHlsZT0iZmlsbDojOTI3M0I2OyIgZD0iTTI5LjUzLDUyLjE3bC0zLjU5LTAuMzkgICAgIGMtMC4yOC0wLjAzLTAuNTEtMC4yNC0wLjU2LTAuNTFjLTAuMjEtMC44OS0wLjUzLTEuNzQtMC45Ni0yLjU1Yy0wLjEyLTAuMjUtMC4wOC0wLjU0LDAuMDktMC43NWwyLjI1LTIuNzcgICAgIGMwLjIzLTAuMjgsMC4yMS0wLjY5LTAuMDUtMC45NGwtMS44Ny0xLjg3Yy0wLjI1LTAuMjUtMC42NS0wLjI3LTAuOTItMC4wNWwtMi43LDIuMTdjLTAuMjIsMC4xNy0wLjUxLDAuMTktMC43NSwwLjA2ICAgICBjLTAuNzUtMC40NS0xLjU2LTAuODEtMi40LTEuMDZjLTAuMjYtMC4wOC0wLjQ1LTAuMzEtMC40OC0wLjU4bC0wLjM5LTMuNDRDMTcuMTYsMzkuMTIsMTYuODYsMzksMTYuNTEsMzloLTIuNjUgICAgIGMtMC4zNSwwLTAuNjUsMC4xMy0wLjY5LDAuNDhsLTAuMzgsMy40MmMtMC4wNCwwLjI4LTAuMjUsMC41MS0wLjUyLDAuNTZjLTAuOTMsMC4yNC0xLjgyLDAuNi0yLjY2LDEuMDggICAgIGMtMC4yNCwwLjEzLTAuNTMsMC4xMS0wLjc1LTAuMDZMNi4yLDQyLjM0Yy0wLjI3LTAuMjItMC42Ny0wLjItMC45MiwwLjA0bC0xLjg5LDEuODhjLTAuMjUsMC4yNS0wLjI3LDAuNjUtMC4wNSwwLjkybDIuMTcsMi43MSAgICAgYzAuMTcsMC4yMiwwLjE5LDAuNTEsMC4wNiwwLjc1Yy0wLjQ1LDAuODMtMC43OSwxLjcxLTEuMDEsMi42MmMtMC4wNywwLjI4LTAuMzIsMC40OS0wLjYxLDAuNTJsLTMuNDMsMC4zOCAgICAgQzAuMTksNTIuMjEtMC4wNCw1Mi41MiwwLDUyLjg1bDAsMi42NmMtMC4wNCwwLjMzLDAuMTksMC42NCwwLjUyLDAuNjlsMy42OSwwLjQxYzAuMjcsMC4wMywwLjQ5LDAuMjIsMC41NiwwLjQ3ICAgICBjMC4yMiwwLjY4LDAuNSwxLjM0LDAuODUsMS45N2MwLjEzLDAuMjQsMC4xLDAuNTQtMC4wNywwLjc1bC0yLjIyLDIuNzVjLTAuMjIsMC4yNy0wLjIsMC42NywwLjA1LDAuOTJsMS44NywxLjg3ICAgICBjMC4yNSwwLjI1LDAuNjUsMC4yNywwLjkyLDAuMDVsMi43My0yLjE5YzAuMjMtMC4xOCwwLjU0LTAuMiwwLjc5LTAuMDVjMC43MiwwLjQxLDEuNDksMC43MywyLjI4LDAuOTYgICAgIGMwLjI4LDAuMDcsMC40OCwwLjMxLDAuNTEsMC41OWwwLjQsMy42OWMwLjA0LDAuMzUsMC4zNCwwLjYyLDAuNjksMC42MWwyLjY1LDBjMC4zNSwwLDAuNjUtMC4yNiwwLjY5LTAuNjFsMC4zOS0zLjY1ICAgICBjMC4wMy0wLjI4LDAuMjMtMC41MSwwLjUtMC41OGMwLjg5LTAuMjQsMS43NS0wLjYsMi41NS0xLjA2YzAuMjQtMC4xMywwLjU0LTAuMSwwLjc1LDAuMDdsMi43NywyLjI1ICAgICBjMC4yOCwwLjIyLDAuNjcsMC4yLDAuOTItMC4wNWwxLjg3LTEuODdjMC4yNS0wLjI1LDAuMjctMC42NSwwLjA1LTAuOTJsLTIuMjQtMi44M2MtMC4xNi0wLjIyLTAuMTktMC41MS0wLjA2LTAuNzUgICAgIGMwLjMyLTAuNTksMC41OC0xLjIxLDAuNzgtMS44NWMwLjA4LTAuMjYsMC4zMS0wLjQ2LDAuNTgtMC40OWwzLjc2LTAuNDFjMC4zNS0wLjA0LDAuNDgtMC4zNCwwLjQ4LTAuNjl2LTIuNjUgICAgIEMzMC4wMSw1Mi41MSwyOS44OCw1Mi4yMSwyOS41Myw1Mi4xN3ogTTE1LjAxLDU5LjM3Yy0zLjA0LDAtNS41MS0yLjQ2LTUuNTEtNS41YzAtMy4wNCwyLjQ2LTUuNTEsNS41LTUuNTEgICAgIGMzLjA0LDAsNS41MSwyLjQ2LDUuNTEsNS41YzAsMCwwLDAuMDEsMCwwLjAxQzIwLjUxLDU2LjkxLDE4LjA1LDU5LjM3LDE1LjAxLDU5LjM3eiIvPiYjeGE7CQk8L2c+JiN4YTsJPC9nPiYjeGE7PC9nPiYjeGE7PC9zdmc+;fontColor=#FFFFFF;" vertex="1" parent="1">
          <mxGeometry x="1088" y="584" width="52" height="68" as="geometry" />
        </mxCell>
        <mxCell id="hTers9WlESxGfoSTvFPv-29" value="APP1" style="shape=image;verticalLabelPosition=bottom;labelBackgroundColor=#8BC63E;verticalAlign=top;aspect=fixed;imageAspect=0;image=data:image/svg+xml,PHN2ZyB4bWxuczpjYz0iaHR0cDovL2NyZWF0aXZlY29tbW9ucy5vcmcvbnMjIiB4bWxuczpkYz0iaHR0cDovL3B1cmwub3JnL2RjL2VsZW1lbnRzLzEuMS8iIHhtbG5zOmlua3NjYXBlPSJodHRwOi8vd3d3Lmlua3NjYXBlLm9yZy9uYW1lc3BhY2VzL2lua3NjYXBlIiB4bWxuczpyZGY9Imh0dHA6Ly93d3cudzMub3JnLzE5OTkvMDIvMjItcmRmLXN5bnRheC1ucyMiIHhtbG5zOnNvZGlwb2RpPSJodHRwOi8vc29kaXBvZGkuc291cmNlZm9yZ2UubmV0L0RURC9zb2RpcG9kaS0wLmR0ZCIgeG1sbnM6c3ZnPSJodHRwOi8vd3d3LnczLm9yZy8yMDAwL3N2ZyIgeG1sbnM9Imh0dHA6Ly93d3cudzMub3JnLzIwMDAvc3ZnIiB4bWxuczp4bGluaz0iaHR0cDovL3d3dy53My5vcmcvMTk5OS94bGluayIgdmVyc2lvbj0iMS4xIiBpZD0ic3ZnMjA1MzciIGlua3NjYXBlOnZlcnNpb249IjAuOTIuMyAoMjQwNTU0NiwgMjAxOC0wMy0xMSkiIHNvZGlwb2RpOmRvY25hbWU9IndlYl9zZXJ2ZXJfNC5zdmciIHg9IjBweCIgeT0iMHB4IiB2aWV3Qm94PSIwIDAgNTEuNjYgNjcuNTEiIHN0eWxlPSJlbmFibGUtYmFja2dyb3VuZDpuZXcgMCAwIDUxLjY2IDY3LjUxOyIgeG1sOnNwYWNlPSJwcmVzZXJ2ZSI+JiN4YTs8c29kaXBvZGk6bmFtZWR2aWV3IGJvcmRlcmNvbG9yPSIjNjY2NjY2IiBib3JkZXJvcGFjaXR5PSIxIiBmaXQtbWFyZ2luLWJvdHRvbT0iMCIgZml0LW1hcmdpbi1sZWZ0PSIwIiBmaXQtbWFyZ2luLXJpZ2h0PSIwIiBmaXQtbWFyZ2luLXRvcD0iMCIgZ3JpZHRvbGVyYW5jZT0iMTAiIGd1aWRldG9sZXJhbmNlPSIxMCIgaWQ9Im5hbWVkdmlldzIwNTM5IiBpbmtzY2FwZTpjdXJyZW50LWxheWVyPSJzdmcyMDUzNyIgaW5rc2NhcGU6Y3g9IjM0LjQzOTI2NSIgaW5rc2NhcGU6Y3k9IjQ1LjAwMzU5NSIgaW5rc2NhcGU6cGFnZW9wYWNpdHk9IjAiIGlua3NjYXBlOnBhZ2VzaGFkb3c9IjIiIGlua3NjYXBlOndpbmRvdy1oZWlnaHQ9IjEwMTciIGlua3NjYXBlOndpbmRvdy1tYXhpbWl6ZWQ9IjEiIGlua3NjYXBlOndpbmRvdy13aWR0aD0iMTkyMCIgaW5rc2NhcGU6d2luZG93LXg9Ii04IiBpbmtzY2FwZTp3aW5kb3cteT0iLTgiIGlua3NjYXBlOnpvb209IjkuNDIzMjc3MyIgb2JqZWN0dG9sZXJhbmNlPSIxMCIgcGFnZWNvbG9yPSIjZmZmZmZmIiBzaG93Z3JpZD0iZmFsc2UiPiYjeGE7CTwvc29kaXBvZGk6bmFtZWR2aWV3PiYjeGE7PGcgaWQ9ImcyMDUzNSIgdHJhbnNmb3JtPSJ0cmFuc2xhdGUoLTAuNzUsLTAuNzQ1MzY4KSI+JiN4YTsJPHRpdGxlIGlkPSJ0aXRsZTIwNDYwIj5QYWdlLTE8L3RpdGxlPiYjeGE7CTxnIGlkPSJncm91cDc4NTktMSIgdHJhbnNmb3JtPSJ0cmFuc2xhdGUoMC43NSwtMC43NTAwMTIpIj4mI3hhOwkJPHRpdGxlIGlkPSJ0aXRsZTIwNDYyIj5XZWIgU2VydmVyICM0PC90aXRsZT4mI3hhOwkJPGcgaWQ9InNoYXBlNzg2MC0yIiB0cmFuc2Zvcm09InRyYW5zbGF0ZSgwLC02Ljc1NDYyKSI+JiN4YTsJCQk8dGl0bGUgaWQ9InRpdGxlMjA0NjQiPnBvbHlnb24yNTA0LjIzODk8L3RpdGxlPiYjeGE7CQkJPHBhdGggaWQ9InBhdGgyMDQ2NiIgaW5rc2NhcGU6Y29ubmVjdG9yLWN1cnZhdHVyZT0iMCIgc3R5bGU9ImZpbGw6IzU2NjE2RDsiIGQ9Ik0wLDQxLjI1aDAuNzVWMzlIMHYtMy43NWgwLjc1VjMzSDB2LTNoMC43NSAgICAgdi0yLjI1SDBWMjRoMC43NXYtMi4yNUgwVjE4aDAuNzV2LTIuMjVIMHYtNy41aDM2Ljc1VjY5SDBWNDEuMjV6Ii8+JiN4YTsJCTwvZz4mI3hhOwkJPGcgaWQ9InNoYXBlNzg2MS00IiB0cmFuc2Zvcm09InRyYW5zbGF0ZSgyMy4yNSwtNTEuNzU0NikiPiYjeGE7CQkJPHRpdGxlIGlkPSJ0aXRsZTIwNDY5Ij5yZWN0MjUwNi4yMzkwPC90aXRsZT4mI3hhOwkJCTxyZWN0IGlkPSJyZWN0MjA0NzEiIHk9IjY2Ljc1IiB3aWR0aD0iMTMuNSIgaGVpZ2h0PSIyLjI1Ii8+JiN4YTsJCTwvZz4mI3hhOwkJPGcgaWQ9InNoYXBlNzg2Mi02IiB0cmFuc2Zvcm09InRyYW5zbGF0ZSgyMy4yNSwtNDUuNzU0NikiPiYjeGE7CQkJPHRpdGxlIGlkPSJ0aXRsZTIwNDc0Ij5yZWN0MjUwOC4yMzkxPC90aXRsZT4mI3hhOwkJCTxyZWN0IGlkPSJyZWN0MjA0NzYiIHk9IjY2Ljc1IiB3aWR0aD0iMTMuNSIgaGVpZ2h0PSIyLjI1Ii8+JiN4YTsJCTwvZz4mI3hhOwkJPGcgaWQ9InNoYXBlNzg2My04IiB0cmFuc2Zvcm09InRyYW5zbGF0ZSgyMy4yNSwtNTcuNzU0NikiPiYjeGE7CQkJPHRpdGxlIGlkPSJ0aXRsZTIwNDc5Ij5yZWN0MjUxMC4yMzkyPC90aXRsZT4mI3hhOwkJCTxyZWN0IGlkPSJyZWN0MjA0ODEiIHk9IjY2Ljc1IiB3aWR0aD0iMTMuNSIgaGVpZ2h0PSIyLjI1Ii8+JiN4YTsJCTwvZz4mI3hhOwkJPGcgaWQ9InNoYXBlNzg2NC0xMCIgdHJhbnNmb3JtPSJ0cmFuc2xhdGUoMC43NSwtNTEuNzU0NikiPiYjeGE7CQkJPHRpdGxlIGlkPSJ0aXRsZTIwNDg0Ij5yZWN0MjUxMi4yMzkzPC90aXRsZT4mI3hhOwkJCTxyZWN0IGlkPSJyZWN0MjA0ODYiIHk9IjY2Ljc1IiBzdHlsZT0iZmlsbDojMzMzMzMzOyIgd2lkdGg9IjE2LjUiIGhlaWdodD0iMi4yNSIvPiYjeGE7CQk8L2c+JiN4YTsJCTxnIGlkPSJzaGFwZTc4NjUtMTIiIHRyYW5zZm9ybT0idHJhbnNsYXRlKDAuNzUsLTQ1Ljc1NDYpIj4mI3hhOwkJCTx0aXRsZSBpZD0idGl0bGUyMDQ4OSI+cmVjdDI1MTQuMjM5NDwvdGl0bGU+JiN4YTsJCQk8cmVjdCBpZD0icmVjdDIwNDkxIiB5PSI2Ni43NSIgc3R5bGU9ImZpbGw6IzMzMzMzMzsiIHdpZHRoPSIxNi41IiBoZWlnaHQ9IjIuMjUiLz4mI3hhOwkJPC9nPiYjeGE7CQk8ZyBpZD0ic2hhcGU3ODY2LTE0IiB0cmFuc2Zvcm09InRyYW5zbGF0ZSgwLjc1LC01Ny43NTQ2KSI+JiN4YTsJCQk8dGl0bGUgaWQ9InRpdGxlMjA0OTQiPnJlY3QyNTE2LjIzOTU8L3RpdGxlPiYjeGE7CQkJPHJlY3QgaWQ9InJlY3QyMDQ5NiIgeT0iNjYuNzUiIHN0eWxlPSJmaWxsOiMzMzMzMzM7IiB3aWR0aD0iMTYuNSIgaGVpZ2h0PSIyLjI1Ii8+JiN4YTsJCTwvZz4mI3hhOwkJPGcgaWQ9InNoYXBlNzg2Ny0xNiIgdHJhbnNmb3JtPSJ0cmFuc2xhdGUoMjMuMjUsLTYuNzU0NjIpIj4mI3hhOwkJCTx0aXRsZSBpZD0idGl0bGUyMDQ5OSI+cG9seWdvbjI1MTguMjM5NjwvdGl0bGU+JiN4YTsJCQk8cGF0aCBpZD0icGF0aDIwNTAxIiBpbmtzY2FwZTpjb25uZWN0b3ItY3VydmF0dXJlPSIwIiBzdHlsZT0iZmlsbDojNDc0RjU5OyIgZD0iTTExLjI1LDE1Ljc1VjE4SDB2My43NWgxMS4yNVYyNEgwdjMuNzVoMTEuMjUgICAgIFYzMEgwdjM5aDEzLjVWOC4yNUgwdjcuNUgxMS4yNXoiLz4mI3hhOwkJPC9nPiYjeGE7CQk8ZyBpZD0ic2hhcGU3ODY4LTE4IiB0cmFuc2Zvcm09InRyYW5zbGF0ZSgwLjc1LC01Ny43NTQ2KSI+JiN4YTsJCQk8dGl0bGUgaWQ9InRpdGxlMjA1MDQiPnBvbHlnb24yNTIwLjIzOTc8L3RpdGxlPiYjeGE7CQkJPHJlY3QgaWQ9InJlY3QyMDUwNiIgeT0iNjYuNzUiIHN0eWxlPSJmaWxsOm5vbmU7IiB3aWR0aD0iMjQuNzUiIGhlaWdodD0iMi4yNSIvPiYjeGE7CQk8L2c+JiN4YTsJCTxnIGlkPSJzaGFwZTc4NjktMjAiIHRyYW5zZm9ybT0idHJhbnNsYXRlKDAuNzUsLTU3Ljc1NDYpIj4mI3hhOwkJCTx0aXRsZSBpZD0idGl0bGUyMDUwOSI+cG9seWxpbmUyNTIyLjIzOTg8L3RpdGxlPiYjeGE7CQkJPHJlY3QgaWQ9InJlY3QyMDUxMSIgeT0iNjYuNzUiIHN0eWxlPSJmaWxsOm5vbmU7IiB3aWR0aD0iMjQuNzUiIGhlaWdodD0iMi4yNSIvPiYjeGE7CQk8L2c+JiN4YTsJCTxnIGlkPSJzaGFwZTc4NzAtMjIiIHRyYW5zZm9ybT0idHJhbnNsYXRlKDE3LjI1LC01Ny43NTQ2KSI+JiN4YTsJCQk8dGl0bGUgaWQ9InRpdGxlMjA1MTQiPnBvbHlnb24yNTI0LjIzOTk8L3RpdGxlPiYjeGE7CQkJPHJlY3QgaWQ9InJlY3QyMDUxNiIgeT0iNjYuNzUiIHN0eWxlPSJmaWxsOiM1NUE1RTQ7IiB3aWR0aD0iNiIgaGVpZ2h0PSIyLjI1Ii8+JiN4YTsJCTwvZz4mI3hhOwkJPGcgaWQ9InNoYXBlNzg3MS0yNCIgdHJhbnNmb3JtPSJ0cmFuc2xhdGUoMTcuMjUsLTUxLjc1NDYpIj4mI3hhOwkJCTx0aXRsZSBpZD0idGl0bGUyMDUxOSI+cG9seWdvbjI1MjYuMjQwMDwvdGl0bGU+JiN4YTsJCQk8cmVjdCBpZD0icmVjdDIwNTIxIiB5PSI2Ni43NSIgc3R5bGU9ImZpbGw6IzU1QTVFNDsiIHdpZHRoPSI2IiBoZWlnaHQ9IjIuMjUiLz4mI3hhOwkJPC9nPiYjeGE7CQk8ZyBpZD0ic2hhcGU3ODcyLTI2IiB0cmFuc2Zvcm09InRyYW5zbGF0ZSgxNy4yNSwtNDUuNzU0NikiPiYjeGE7CQkJPHRpdGxlIGlkPSJ0aXRsZTIwNTI0Ij5wb2x5Z29uMjUyOC4yNDAxPC90aXRsZT4mI3hhOwkJCTxyZWN0IGlkPSJyZWN0MjA1MjYiIHk9IjY2Ljc1IiBzdHlsZT0iZmlsbDojNTVBNUU0OyIgd2lkdGg9IjYiIGhlaWdodD0iMi4yNSIvPiYjeGE7CQk8L2c+JiN4YTsJCTxnIGlkPSJzaGFwZTc4NzMtMjgiIHRyYW5zZm9ybT0idHJhbnNsYXRlKDIxLjY1ODYpIj4mI3hhOwkJCTx0aXRsZSBpZD0idGl0bGUyMDUyOSI+cGF0aDI1MzAuMjQwMjwvdGl0bGU+JiN4YTsJCQk8cGF0aCBpZD0icGF0aDIwNTMxIiBpbmtzY2FwZTpjb25uZWN0b3ItY3VydmF0dXJlPSIwIiBzdHlsZT0iZmlsbDojOTI3M0I2OyIgZD0iTTI5LjUzLDUyLjE3bC0zLjU5LTAuMzkgICAgIGMtMC4yOC0wLjAzLTAuNTEtMC4yNC0wLjU2LTAuNTFjLTAuMjEtMC44OS0wLjUzLTEuNzQtMC45Ni0yLjU1Yy0wLjEyLTAuMjUtMC4wOC0wLjU0LDAuMDktMC43NWwyLjI1LTIuNzcgICAgIGMwLjIzLTAuMjgsMC4yMS0wLjY5LTAuMDUtMC45NGwtMS44Ny0xLjg3Yy0wLjI1LTAuMjUtMC42NS0wLjI3LTAuOTItMC4wNWwtMi43LDIuMTdjLTAuMjIsMC4xNy0wLjUxLDAuMTktMC43NSwwLjA2ICAgICBjLTAuNzUtMC40NS0xLjU2LTAuODEtMi40LTEuMDZjLTAuMjYtMC4wOC0wLjQ1LTAuMzEtMC40OC0wLjU4bC0wLjM5LTMuNDRDMTcuMTYsMzkuMTIsMTYuODYsMzksMTYuNTEsMzloLTIuNjUgICAgIGMtMC4zNSwwLTAuNjUsMC4xMy0wLjY5LDAuNDhsLTAuMzgsMy40MmMtMC4wNCwwLjI4LTAuMjUsMC41MS0wLjUyLDAuNTZjLTAuOTMsMC4yNC0xLjgyLDAuNi0yLjY2LDEuMDggICAgIGMtMC4yNCwwLjEzLTAuNTMsMC4xMS0wLjc1LTAuMDZMNi4yLDQyLjM0Yy0wLjI3LTAuMjItMC42Ny0wLjItMC45MiwwLjA0bC0xLjg5LDEuODhjLTAuMjUsMC4yNS0wLjI3LDAuNjUtMC4wNSwwLjkybDIuMTcsMi43MSAgICAgYzAuMTcsMC4yMiwwLjE5LDAuNTEsMC4wNiwwLjc1Yy0wLjQ1LDAuODMtMC43OSwxLjcxLTEuMDEsMi42MmMtMC4wNywwLjI4LTAuMzIsMC40OS0wLjYxLDAuNTJsLTMuNDMsMC4zOCAgICAgQzAuMTksNTIuMjEtMC4wNCw1Mi41MiwwLDUyLjg1bDAsMi42NmMtMC4wNCwwLjMzLDAuMTksMC42NCwwLjUyLDAuNjlsMy42OSwwLjQxYzAuMjcsMC4wMywwLjQ5LDAuMjIsMC41NiwwLjQ3ICAgICBjMC4yMiwwLjY4LDAuNSwxLjM0LDAuODUsMS45N2MwLjEzLDAuMjQsMC4xLDAuNTQtMC4wNywwLjc1bC0yLjIyLDIuNzVjLTAuMjIsMC4yNy0wLjIsMC42NywwLjA1LDAuOTJsMS44NywxLjg3ICAgICBjMC4yNSwwLjI1LDAuNjUsMC4yNywwLjkyLDAuMDVsMi43My0yLjE5YzAuMjMtMC4xOCwwLjU0LTAuMiwwLjc5LTAuMDVjMC43MiwwLjQxLDEuNDksMC43MywyLjI4LDAuOTYgICAgIGMwLjI4LDAuMDcsMC40OCwwLjMxLDAuNTEsMC41OWwwLjQsMy42OWMwLjA0LDAuMzUsMC4zNCwwLjYyLDAuNjksMC42MWwyLjY1LDBjMC4zNSwwLDAuNjUtMC4yNiwwLjY5LTAuNjFsMC4zOS0zLjY1ICAgICBjMC4wMy0wLjI4LDAuMjMtMC41MSwwLjUtMC41OGMwLjg5LTAuMjQsMS43NS0wLjYsMi41NS0xLjA2YzAuMjQtMC4xMywwLjU0LTAuMSwwLjc1LDAuMDdsMi43NywyLjI1ICAgICBjMC4yOCwwLjIyLDAuNjcsMC4yLDAuOTItMC4wNWwxLjg3LTEuODdjMC4yNS0wLjI1LDAuMjctMC42NSwwLjA1LTAuOTJsLTIuMjQtMi44M2MtMC4xNi0wLjIyLTAuMTktMC41MS0wLjA2LTAuNzUgICAgIGMwLjMyLTAuNTksMC41OC0xLjIxLDAuNzgtMS44NWMwLjA4LTAuMjYsMC4zMS0wLjQ2LDAuNTgtMC40OWwzLjc2LTAuNDFjMC4zNS0wLjA0LDAuNDgtMC4zNCwwLjQ4LTAuNjl2LTIuNjUgICAgIEMzMC4wMSw1Mi41MSwyOS44OCw1Mi4yMSwyOS41Myw1Mi4xN3ogTTE1LjAxLDU5LjM3Yy0zLjA0LDAtNS41MS0yLjQ2LTUuNTEtNS41YzAtMy4wNCwyLjQ2LTUuNTEsNS41LTUuNTEgICAgIGMzLjA0LDAsNS41MSwyLjQ2LDUuNTEsNS41YzAsMCwwLDAuMDEsMCwwLjAxQzIwLjUxLDU2LjkxLDE4LjA1LDU5LjM3LDE1LjAxLDU5LjM3eiIvPiYjeGE7CQk8L2c+JiN4YTsJPC9nPiYjeGE7PC9nPiYjeGE7PC9zdmc+;fontColor=#FFFFFF;" vertex="1" parent="1">
          <mxGeometry x="1086" y="403" width="52" height="68" as="geometry" />
        </mxCell>
        <mxCell id="hTers9WlESxGfoSTvFPv-30" value="本地缓存" style="shadow=0;html=1;strokeColor=none;labelPosition=center;verticalLabelPosition=top;verticalAlign=bottom;shape=mxgraph.mscae.cloud.azure_storage;fillColor=#FFFFFF;rounded=0;fontSize=10;fontColor=#FFFFFF;align=center;" vertex="1" parent="1">
          <mxGeometry x="1008" y="509" width="50" height="43" as="geometry" />
        </mxCell>
      </root>
    </mxGraphModel>
  </diagram>
</mxfile>
